<!-- Generator: Adobe Illustrator 22.0.0, SVG Export Plug-In  -->
<svg version="1.1"
	 xmlns="http://www.w3.org/2000/svg" xmlns:xlink="http://www.w3.org/1999/xlink" xmlns:a="http://ns.adobe.com/AdobeSVGViewerExtensions/3.0/"
	 x="0px" y="0px" width="1410.9px" height="903.9px" viewBox="0 0 1410.9 903.9"
	 style="overflow:scroll;enable-background:new 0 0 1410.9 903.9;" xml:space="preserve">
<style type="text/css">
	.st0{fill:none;stroke:#000000;stroke-miterlimit:10;}
</style>
<defs>
</defs>
<g>
	<path class="st0" d="M862,532.2c0,27.7,13.3,92-25.4,173.7C808.5,765.4,759.8,847,705,847.4c-57,0.4-108.5-87.2-133.4-139.7
		c-15.7-33.1-30.1-96.5-23.6-175.4c3.5-42.7,6.3-78.5,36.6-104.3c29.7-25.3,74.2-28.2,120.4-28.2C786.2,399.7,862,408.6,862,532.2z"
		/>
	<ellipse class="st0" cx="705" cy="399.7" rx="139" ry="74"/>
	<ellipse class="st0" cx="705" cy="289.4" rx="123.4" ry="28.7"/>
	<ellipse class="st0" cx="705" cy="255" rx="122.5" ry="103.7"/>
	<ellipse class="st0" cx="705" cy="243.2" rx="102.1" ry="123"/>
	<ellipse class="st0" cx="705" cy="197.1" rx="102.1" ry="123"/>
	<ellipse transform="matrix(0.866 -0.5 0.5 0.866 42.387 347.4167)" class="st0" cx="669.5" cy="94.6" rx="39.8" ry="19.4"/>
	<ellipse transform="matrix(0.5 -0.866 0.866 0.5 288.6023 689.1001)" class="st0" cx="741.1" cy="94.6" rx="19.4" ry="39.8"/>
	<ellipse class="st0" cx="705.6" cy="74.1" rx="24.7" ry="12.7"/>

		<ellipse transform="matrix(0.6602 -0.7511 0.7511 0.6602 -177.3694 565.1649)" class="st0" cx="535.9" cy="478.6" rx="65.5" ry="23"/>
	<ellipse class="st0" cx="492.9" cy="597.2" rx="11" ry="75"/>

		<ellipse transform="matrix(0.1072 -0.9942 0.9942 0.1072 -295.7097 1135.5039)" class="st0" cx="484.4" cy="732.4" rx="73.3" ry="10.4"/>
	<ellipse class="st0" cx="700" cy="354.7" rx="144" ry="65.3"/>
	<path class="st0" d="M828.4,235c146.3-82.4,273.5-122.8,360.2-144.2c61.9-15.3,195.9-50.1,218.4-12.7c14.7,24.5-20.8,76.1-45,101.8
		c-41,43.6-94.2,60.3-90,86.9c1.7,10.7,10.9,12.6,13.5,27.6c3.9,22.4-12.7,42.3-18,48.8c-39.4,47.5-181.3,52.8-308.4,12.7
		c-46-14.5-81.4-32.2-103.6-44.5"/>
	<path class="st0" d="M582.5,235C436.2,152.6,309,112.2,222.3,90.8C160.4,75.5,26.4,40.7,4,78.1c-14.7,24.5,20.8,76.1,45,101.8
		c41,43.6,94.2,60.3,90,86.9c-1.7,10.7-10.9,12.6-13.5,27.6c-3.9,22.4,12.7,42.3,18,48.8c39.4,47.5,181.3,52.8,308.4,12.7
		c46-14.5,81.4-32.2,103.6-44.5"/>
	<path class="st0" d="M730.3,68.5c12.5-13,32.8-31.2,62-46c26.6-13.5,50.9-19.3,68-22"/>
	<path class="st0" d="M686,68.5c-12.5-13-32.8-31.2-62-46C597.4,9,573,3.2,556,0.5"/>
	<ellipse transform="matrix(0.1995 -0.9799 0.9799 0.1995 140.43 793.6454)" class="st0" cx="556" cy="310.9" rx="14.1" ry="41.9"/>
	<ellipse transform="matrix(0.577 -0.8168 0.8168 0.577 -83.6144 547.8857)" class="st0" cx="487.1" cy="354.7" rx="72" ry="16"/>

		<ellipse transform="matrix(0.5327 -0.8463 0.8463 0.5327 -189.9146 564.9412)" class="st0" cx="416.6" cy="454.4" rx="72.5" ry="18"/>
	<ellipse class="st0" cx="327.3" cy="508.4" rx="60.7" ry="5.1"/>

		<ellipse transform="matrix(0.9083 -0.4182 0.4182 0.9083 -190.5778 157.3191)" class="st0" cx="263.6" cy="513.5" rx="14.7" ry="2.5"/>

		<ellipse transform="matrix(0.1072 -0.9942 0.9942 0.1072 -403.7678 1213.3439)" class="st0" cx="473.7" cy="831.5" rx="57.5" ry="3"/>
	<ellipse transform="matrix(0.9083 -0.4182 0.4182 0.9083 -287.9149 279.125)" class="st0" cx="492.9" cy="796.5" rx="3" ry="19"/>
	<ellipse transform="matrix(0.5 -0.866 0.866 0.5 -301.2812 484.7383)" class="st0" cx="269.2" cy="503.3" rx="3" ry="8.6"/>

		<ellipse transform="matrix(0.5743 -0.8186 0.8186 0.5743 -526.2253 771.6529)" class="st0" cx="478.9" cy="891.8" rx="1.6" ry="17.3"/>

		<ellipse transform="matrix(0.164 -0.9865 0.9865 0.164 -474.8004 1209.3625)" class="st0" cx="476.1" cy="884.8" rx="1.6" ry="10.7"/>

		<ellipse transform="matrix(0.7511 -0.6602 0.6602 0.7511 -99.9358 695.1095)" class="st0" cx="871.9" cy="480.1" rx="23" ry="65.5"/>
	<ellipse class="st0" cx="914.9" cy="598.7" rx="11" ry="75"/>

		<ellipse transform="matrix(0.9942 -0.1072 0.1072 0.9942 -73.3668 103.24)" class="st0" cx="923.4" cy="733.9" rx="10.4" ry="73.3"/>

		<ellipse transform="matrix(0.9799 -0.1995 0.1995 0.9799 -45.1944 176.2348)" class="st0" cx="851.9" cy="312.4" rx="41.9" ry="14.1"/>
	<ellipse transform="matrix(0.8168 -0.577 0.577 0.8168 -36.7832 596.4932)" class="st0" cx="920.7" cy="356.2" rx="16" ry="72"/>

		<ellipse transform="matrix(0.8463 -0.5327 0.5327 0.8463 -90.5334 598.1135)" class="st0" cx="991.2" cy="455.9" rx="18" ry="72.5"/>
	<ellipse class="st0" cx="1080.5" cy="509.9" rx="60.7" ry="5.1"/>

		<ellipse transform="matrix(0.4182 -0.9083 0.9083 0.4182 201.5907 1343.1273)" class="st0" cx="1149.3" cy="514.2" rx="2.5" ry="14.7"/>
	<ellipse transform="matrix(0.9942 -0.1072 0.1072 0.9942 -83.9297 104.957)" class="st0" cx="934.1" cy="833" rx="3" ry="57.5"/>
	<ellipse transform="matrix(0.4182 -0.9083 0.9083 0.4182 -192.5169 1295.3264)" class="st0" cx="914.9" cy="798" rx="19" ry="3"/>
	<ellipse transform="matrix(0.866 -0.5 0.5 0.866 -98.7613 639.4238)" class="st0" cx="1143.8" cy="504" rx="8.6" ry="3"/>

		<ellipse transform="matrix(0.8186 -0.5743 0.5743 0.8186 -344.5724 695.5416)" class="st0" cx="928.9" cy="893.3" rx="17.3" ry="1.6"/>

		<ellipse transform="matrix(0.9865 -0.164 0.164 0.9865 -132.7718 164.8424)" class="st0" cx="931.7" cy="886.3" rx="10.7" ry="1.6"/>

		<ellipse transform="matrix(0.3715 -0.9284 0.9284 0.3715 368.0071 890.0782)" class="st0" cx="841.5" cy="173.2" rx="59.2" ry="16.7"/>
	<ellipse transform="matrix(0.9279 -0.3727 0.3727 0.9279 22.7621 345.117)" class="st0" cx="903.9" cy="113.7" rx="53" ry="10.2"/>
	<ellipse transform="matrix(0.8168 -0.577 0.577 0.8168 143.9999 581.9569)" class="st0" cx="988.2" cy="64.3" rx="67.7" ry="5.2"/>
	<ellipse transform="matrix(0.9284 -0.3715 0.3715 0.9284 -22.2962 224.3081)" class="st0" cx="571" cy="170" rx="16.7" ry="59.2"/>

		<ellipse transform="matrix(0.3727 -0.9279 0.9279 0.3727 216.4291 541.1555)" class="st0" cx="508.5" cy="110.5" rx="10.2" ry="53"/>
	<ellipse transform="matrix(0.577 -0.8168 0.8168 0.577 129.5699 372.3151)" class="st0" cx="424.2" cy="61.1" rx="5.2" ry="67.7"/>
	<path class="st0" d="M126,310.9c22.8-16.2,48.9-31.4,78.5-43.7c157.2-65.3,307.8-5.4,367.5,23"/>
	<path class="st0" d="M189.6,83.4c34.1,16.5,54.2,46.7,50.5,74.3c-0.5,3.7-3.1,19.4-16.1,31.5c-12.7,11.9-31.6,13.3-68.8,15.8
		c-35.6,2.3-61.2,3.9-71.1,4.5"/>
	<path class="st0" d="M247.6,381.2c-0.1-12.3,2.5-22.1,6.3-29.9c24.5-49.5,120.3-63.3,238-38.9"/>
	<path class="st0" d="M1.7,102.3c18.5-1.5,32.4,1.4,41.7,4.4c24.9,8,32,21.2,58,30c16.5,5.6,28.6,5.3,40,6c24.9,1.5,61.3,8.6,110,34
		"/>
	<path class="st0" d="M396,146.4c-2.4,5.9-5.2,14.7-5.4,25.6c-0.2,12,2.8,16.4,0,22.8c-3.6,8-10.8,6.6-19.4,14.6
		c-7,6.6-10.6,15.3-12.4,21.9"/>
	<path class="st0" d="M382,199.5"/>
	<path class="st0" d="M261.5,175c24.8-3.9,44.4-2.9,57-1.5c62.2,6.9,89,38.8,168,60c18.1,4.8,33,7.6,42,9"/>
	<path class="st0" d="M138.8,337.2c8.9-11.5,22.7-26.9,41.8-38.7c45-27.6,85.3-14.1,133.2-6.4c35.4,5.6,85.1,9.7,147.2,2.1"/>
	<path class="st0" d="M221,203.5c-1.1,1.6-5.7,8.5-4.5,18c1.1,8.3,5.9,13.5,7.5,15"/>
	<g>
		<path class="st0" d="M1285.5,306.9c-21.5-15.1-46.1-29.2-74.1-40.6c-157.4-64.3-314.3-1.3-367.5,23"/>
		<path class="st0" d="M1226.4,82.4c-34.1,16.5-54.2,46.7-50.5,74.3c0.5,3.7,3.1,19.4,16.1,31.5c12.6,11.8,31.5,13.3,68.8,15.7
			c33.8,2.2,58.7,3.7,68.9,4.4"/>
		<path class="st0" d="M1168.3,380.3c0.1-12.3-2.5-22.1-6.3-29.9c-24.5-49.5-120.3-63.3-238-38.9"/>
		<path class="st0" d="M1409.4,101c-8.7-0.4-22,0-36.9,4.7c-24.9,8-32.8,21.3-58,30c-16.4,5.7-28.2,5.3-40,6
			c-24.9,1.5-61.3,8.6-110,34"/>
		<path class="st0" d="M1020,145.4c2.4,5.9,5.2,14.7,5.4,25.6c0.2,12-2.8,16.4,0,22.8c3.6,8,10.8,6.6,19.4,14.6
			c7,6.6,10.6,15.3,12.4,21.9"/>
		<path class="st0" d="M1154.4,174.1c-24.8-3.9-44.4-2.9-57-1.5c-62.2,6.9-89,38.8-168,60c-18.1,4.8-33,7.6-42,9"/>
		<path class="st0" d="M1274.8,333.2c-7.7-10.7-20.3-25.1-39.5-35.7c-40-22.2-79.9-12.2-133.2-6.4c-35.5,3.8-85.3,6.7-147.2,2.1"/>
		<path class="st0" d="M1194.9,202.6c1.1,1.6,5.7,8.5,4.5,18c-1.1,8.3-5.9,13.5-7.5,15"/>
	</g>
</g>
</svg>
