<!-- Generator: Adobe Illustrator 22.0.0, SVG Export Plug-In  -->
<svg version="1.1"
	 xmlns="http://www.w3.org/2000/svg" xmlns:xlink="http://www.w3.org/1999/xlink" xmlns:a="http://ns.adobe.com/AdobeSVGViewerExtensions/3.0/"
	 x="0px" y="0px" width="446.5px" height="843.3px" viewBox="0 0 446.5 843.3"
	 style="overflow:scroll;enable-background:new 0 0 446.5 843.3;" xml:space="preserve">
<style type="text/css">
	.st0{fill:none;stroke:#000000;stroke-miterlimit:10;}
	.st1{fill:none;stroke:#000000;stroke-width:2;stroke-miterlimit:10;}
	.st2{fill:none;stroke:#000000;stroke-width:4;stroke-miterlimit:10;}
	.st3{fill:none;stroke:#000000;stroke-width:0.75;stroke-miterlimit:10;}
	.st4{fill:none;stroke:#000000;stroke-width:3;stroke-miterlimit:10;}
	.st5{fill:none;stroke:#000000;stroke-width:0.5;stroke-miterlimit:10;}
</style>
<defs>
</defs>
<path class="st0" d="M446,223.2c0,36.7-8.9,71.4-24.6,101.9c-11.9,31.5-23.8,63-35.7,94.5c-5.7,15.2-11.5,30.4-17.2,45.5
	c-6.3,16.8-12.2,31.6-13.6,49.7c-1,12.5-2.2,25-3.3,37.5c-1.5,10.3-1.9,21-2.8,31.4c-0.5,5.2-0.9,10.4-1.4,15.7
	c-1.5,17-6.4,33.6-10.3,50.2c-0.2,0.9-0.4,1.9-0.6,2.8H281V532.5c0-14.7-7.6-28-19.8-37c-1.1-0.8-2.3-1.7-3.5-2.4
	c-0.8-0.5-1.5-1-2.3-1.4c-0.7-0.4-1.4-0.8-2.1-1.1c-0.1-0.1-0.2-0.1-0.3-0.2c0,0-0.1,0-0.1-0.1c0,0,0,0-0.1,0
	c-0.4-0.2-0.8-0.4-1.3-0.6c-0.1,0-0.2-0.1-0.2-0.1c-0.8-0.4-1.6-0.7-2.4-1.1c0,0,0,0,0,0c-0.6-0.3-1.3-0.5-1.9-0.8
	c0,0-0.1,0-0.1-0.1c-0.2-0.1-0.5-0.2-0.7-0.3c-0.4-0.2-0.9-0.3-1.3-0.5h0c0,0-0.1,0-0.1,0c-6.6-2.3-13.9-3.5-21.5-3.5
	c-7.6,0-14.9,1.3-21.5,3.5c-2.3,0.8-4.5,1.7-6.6,2.7c-1.5,0.7-3,1.5-4.4,2.3c-0.7,0.4-1.3,0.8-2,1.2c-1.2,0.8-2.4,1.6-3.5,2.4
	c-12.1,9-19.8,22.2-19.8,37v119.9h-56.8c-2.9-12.5-5.8-25-8.7-37.5c-2-8.5-2.3-17.3-3.1-26c-0.8-9.2-1.6-18.4-2.5-27.7
	c-1.1-12.3-2.2-24.6-3.3-36.9c-1.3-15-2.7-27.9-8-42.1c-3.1-8.2-6.2-16.3-9.3-24.5c-8.2-21.8-16.5-43.7-24.7-65.5
	c-10.2-26.9-20.3-53.8-30.4-80.6l0,0C7,284.5,0.5,254.6,0.5,223.2c0-123,99.7-222.7,222.7-222.7C346.3,0.5,446,100.2,446,223.2z"/>
<path class="st0" d="M201.7,486.9v165.5h-36.3V532.5c0-14.7,7.6-28,19.8-37c1.1-0.8,2.3-1.6,3.5-2.4c0.6-0.4,1.3-0.8,2-1.2
	c1.4-0.8,2.9-1.6,4.4-2.3C197.3,488.6,199.5,487.7,201.7,486.9z"/>
<path class="st0" d="M253,490.4C253,490.4,253,490.4,253,490.4C252.9,490.4,252.9,490.4,253,490.4
	C252.9,490.4,252.9,490.4,253,490.4z"/>
<path class="st0" d="M281,532.5v119.9h-36.3V486.9c0,0,0.1,0,0.1,0h0c0.5,0.3,1,0.6,1.5,1c1.2,0.8,2.4,1.6,3.5,2.6
	c0.5,0.4,1,0.8,1.5,1.2c11.2,9.6,18.3,23.2,18.3,38.2v122.4h11.3L281,532.5c-0.1-14.8-7.7-28-19.8-37c-1.1-0.8-2.3-1.7-3.5-2.4
	c-0.8-0.5-1.5-1-2.3-1.4c-0.7-0.4-1.3-0.8-2-1.1c-0.1-0.1-0.2-0.1-0.3-0.2c0.1,0.1,0.2,0.1,0.3,0.2c0.7,0.4,1.4,0.7,2.1,1.1
	c0.8,0.4,1.6,0.9,2.3,1.4c1.2,0.8,2.4,1.6,3.5,2.4C273.4,504.5,281,517.8,281,532.5z"/>
<path class="st0" d="M253,490.4C253,490.4,253,490.4,253,490.4C252.9,490.4,252.9,490.4,253,490.4
	C252.9,490.4,252.9,490.4,253,490.4z"/>
<path class="st0" d="M280.9,532.5v119.9h-11.3V530c0-15.1-7-28.7-18.3-38.2c-0.5-0.4-1-0.8-1.5-1.2c-1.1-0.9-2.3-1.8-3.5-2.6
	c-0.5-0.4-1-0.7-1.5-1c0.4,0.1,0.9,0.3,1.3,0.5c0.2,0.1,0.5,0.2,0.7,0.3c0,0,0.1,0,0.1,0.1c0.7,0.3,1.3,0.5,1.9,0.8c0,0,0,0,0,0
	c0.8,0.3,1.6,0.7,2.4,1.1c0.1,0,0.2,0.1,0.2,0.1c0.4,0.2,0.8,0.4,1.3,0.6c0,0,0,0,0.1,0c0.1,0.1,0.3,0.2,0.4,0.2
	c0.7,0.3,1.3,0.7,2,1.1c0.8,0.4,1.6,0.9,2.3,1.4c1.2,0.8,2.4,1.6,3.5,2.4C273.3,504.5,280.9,517.7,280.9,532.5z"/>
<path class="st0" d="M253.3,490.6c-0.1-0.1-0.3-0.2-0.4-0.2c0,0,0.1,0,0.1,0.1C253.1,490.5,253.2,490.5,253.3,490.6z"/>
<rect x="217.3" y="359.4" class="st0" width="16.1" height="47"/>
<path class="st0" d="M238.3,358.6h-26.9c-2,0-3.6-1.6-3.6-3.6l0,0c0-2,1.6-3.6,3.6-3.6h26.9c2,0,3.6,1.6,3.6,3.6l0,0
	C241.9,357,240.3,358.6,238.3,358.6z"/>
<path class="st0" d="M244.7,486.9v165.5h-43V486.9c6.6-2.3,13.9-3.5,21.5-3.5C230.8,483.4,238.1,484.7,244.7,486.9z"/>
<path class="st0" d="M229.1,483.5c-6,0.4-11.8,1.5-17.2,3.4v165.5h-8.6V486.9c6.6-2.3,13.9-3.5,21.5-3.5
	C226.3,483.4,227.7,483.4,229.1,483.5z"/>
<line class="st1" x1="217.3" y1="406.4" x2="159.7" y2="211.1"/>
<path class="st0" d="M251.3,432.2v57.4c-0.8-0.4-1.6-0.7-2.4-1.1c0,0,0,0,0,0c-0.6-0.3-1.3-0.5-1.9-0.8c0,0-0.1,0-0.1-0.1
	c-0.2-0.1-0.5-0.2-0.7-0.3c-0.4-0.2-0.9-0.3-1.3-0.5h0c0,0-0.1,0-0.1,0c-6.6-2.3-13.9-3.5-21.5-3.5c-7.6,0-14.9,1.3-21.5,3.5
	c-2.3,0.8-4.5,1.7-6.6,2.7v-57.4c0-2.5,0.2-5,0.7-7.3c2.8-14.9,14-26,27.4-26c13.4,0,24.6,11.1,27.4,26
	C251.1,427.3,251.3,429.7,251.3,432.2z"/>
<path class="st0" d="M238.2,404.8c-7.7,4.3-13.4,12.7-15.3,22.8c-0.4,2.4-0.7,4.8-0.7,7.3v48.5c-7.6,0-14.9,1.3-21.5,3.5
	c-2.3,0.8-4.5,1.7-6.6,2.7v-57.4c0-2.5,0.2-5,0.7-7.3c2.8-14.9,14-26,27.4-26c0.4,0,0.7,0,1.1,0c0.2,0,0.4,0,0.6,0
	c0.3,0,0.5,0,0.7,0.1c0.4,0,0.8,0.1,1.2,0.2c0.4,0,0.7,0.1,1.1,0.2c0.1,0,0.2,0,0.3,0.1c0.3,0.1,0.6,0.1,0.9,0.2
	c0.1,0,0.1,0,0.2,0.1c0.2,0,0.5,0.1,0.7,0.2c0.2,0.1,0.4,0.1,0.6,0.2c0.8,0.3,1.6,0.6,2.4,0.9c0.3,0.1,0.6,0.3,0.9,0.4
	c0.3,0.1,0.6,0.3,0.9,0.4c0.2,0.1,0.3,0.2,0.5,0.3c0.2,0.1,0.4,0.3,0.7,0.4C236.1,403.2,237.2,403.9,238.2,404.8z"/>
<line class="st1" x1="235.4" y1="406.4" x2="251.3" y2="252.8"/>
<line class="st2" x1="157.3" y1="211.5" x2="163" y2="230.6"/>
<line class="st2" x1="254.2" y1="253" x2="252.2" y2="272.7"/>
<line class="st3" x1="229.2" y1="351.2" x2="248.3" y2="196.9"/>
<line class="st3" x1="248.3" y1="196.9" x2="228.8" y2="163.1"/>
<g>
	<line class="st3" x1="241.9" y1="351.3" x2="285.5" y2="223.6"/>
	<circle class="st3" cx="271.8" cy="222.6" r="13.7"/>
	<line class="st3" x1="285.5" y1="223.6" x2="274.4" y2="186.3"/>
</g>
<path class="st4" d="M258.1,244.1c0.5-2.8,1.6-6.7,3.7-11c3.1-6.4,5.8-7.7,6-10.3c0.6-6.8-15.5-14.6-28.3-18.3
	c-12-3.5-37.6-8.1-74.7,6.5"/>
<ellipse class="st3" cx="237.9" cy="201.5" rx="11" ry="16.9"/>
<line class="st3" x1="258.1" y1="244" x2="253.2" y2="253"/>
<line class="st3" x1="160.1" y1="212.7" x2="160.1" y2="212.7"/>
<line class="st5" x1="160.1" y1="212.7" x2="165" y2="210.8"/>
<path class="st0" d="M336.5,652.4l-1.3,22.7l-1.6,28.1l-0.8,13.2l-1.6,28.2l-2.1,36.4l-0.1,1.7c-0.6,9.8-4.2,18.8-10,25.9
	c-8.3,10.3-21.1,16.8-35.3,16.8H161.5c-18.8,0-35-11.4-41.8-27.9c-1.9-4.6-3.1-9.6-3.4-14.9l-0.8-13.5l-0.7-12.6l-1.6-28l-2.2-37.7
	l-1.6-28.2l-0.6-10.3H336.5z"/>
<path class="st0" d="M336.5,687.3l-0.2,3.7c-0.4,6.7-6.2,11.8-13,11.5l-202.6-11c-6.3-0.3-11.3-5.3-11.7-11.5l-0.2-3.7
	c-0.4-7.3,5.7-13.3,13-12.9l203.1,11.1C331.7,674.8,336.9,680.6,336.5,687.3z"/>
<path class="st0" d="M333.7,740.9l-0.2,3.7c-0.4,6.7-6.1,11.8-12.8,11.5l-198.5-11c-6.2-0.3-11.1-5.3-11.4-11.5l-0.2-3.7
	c-0.4-7.3,5.5-13.3,12.8-12.9l199,11.1C329,728.4,334.1,734.2,333.7,740.9z"/>
<path class="st0" d="M327.9,794.5l-0.2,3.7c-0.4,6.7-5.8,11.8-12.2,11.5l-189.9-11c-5.9-0.3-10.6-5.3-10.9-11.5l-0.2-3.7
	c-0.4-7.3,5.3-13.3,12.2-12.9L317,781.6C323.4,782,328.3,787.7,327.9,794.5z"/>
<path class="st0" d="M250.3,825.4h-54.2c0,9.6,12.1,17.3,27.1,17.3C238.2,842.8,250.3,835,250.3,825.4z"/>
<path class="st0" d="M251.3,432.2v57.4c-0.8-0.4-1.6-0.7-2.4-1.1c0,0,0,0,0,0c-0.3-0.1-0.7-0.3-1-0.4c-1.6-6.8-2.5-15.1-2.5-23.9
	c0-13.9,2.3-26.3,5.9-34.3C251.3,430.7,251.3,431.4,251.3,432.2z"/>
</svg>
