<svg xmlns="http://www.w3.org/2000/svg" viewBox="0 0 1728 1065.75"><defs><style>.a,.b,.d{fill:none;stroke:#fff;stroke-miterlimit:10;}.a{stroke-width:5px;}.b{stroke-width:2px;}.c{fill:#fff;}</style></defs><title>Asset 1</title><rect width="1728" height="1063.65"/><path class="a" d="M1254.91,812.66a36.37,36.37,0,0,1-36.36-36.43"/><path class="a" d="M1313.59,753.74a58.86,58.86,0,0,1-58.86,58.93"/><path class="a" d="M1218.4,658.63a95.25,95.25,0,0,1,95.2,95.4"/><path class="a" d="M1064.75,812.91c0-85.3,69-154.3,154.12-154.28"/><path class="a" d="M1314,1061.94c-137.81,0-249.3-111.76-249.27-249.79"/><path class="a" d="M1716.3,658c0,223.35-180.54,404-403.53,404"/><path class="a" d="M1063.69,6c360.83.09,652.73,292.61,652.64,654"/><path class="a" d="M10.31,1063.65C10.46,478.85,483,5.77,1066.91,5.91"/><rect class="b" x="11.67" y="6.8" width="1054.28" height="1055.96"/><rect class="b" x="1065.95" y="6.8" width="651.74" height="652.77"/><rect class="b" x="1315.14" y="659.58" width="402.54" height="403.18"/><rect class="b" x="1065.95" y="813.17" width="249.19" height="249.59"/><rect class="b" x="1065.95" y="659.58" width="153.35" height="153.59"/><rect class="b" x="1219.3" y="659.58" width="95.84" height="96"/><rect class="b" x="1257.64" y="659.58" width="57.51" height="57.6"/><rect class="b" x="1276.8" y="717.17" width="38.34" height="38.4"/><rect class="b" x="1257.64" y="717.17" width="19.17" height="19.2"/><rect class="b" x="1257.64" y="736.37" width="19.17" height="19.2"/><path class="c" d="M225.07,616.22V601.37a28.77,28.77,0,0,0,6.12,4,49.63,49.63,0,0,0,7.5,3,60.26,60.26,0,0,0,7.91,1.91,44.15,44.15,0,0,0,7.35.68q11.63,0,17.37-4.32t5.73-12.41a14.57,14.57,0,0,0-1.91-7.58,21.52,21.52,0,0,0-5.29-5.88,51.86,51.86,0,0,0-8-5.1q-4.62-2.44-9.94-5.14-5.62-2.85-10.5-5.78a45.54,45.54,0,0,1-8.48-6.45,26.75,26.75,0,0,1-5.66-8,27.17,27.17,0,0,1,1.16-23.25,27.72,27.72,0,0,1,8.48-9,38.36,38.36,0,0,1,12-5.25,54.77,54.77,0,0,1,13.69-1.73q15.9,0,23.17,3.83v14.18q-9.53-6.6-24.45-6.6a39.86,39.86,0,0,0-8.25.86,23.18,23.18,0,0,0-7.35,2.81,16.3,16.3,0,0,0-5.25,5,13.34,13.34,0,0,0-2,7.5,15.48,15.48,0,0,0,1.53,7.12,17.56,17.56,0,0,0,4.54,5.48,45.39,45.39,0,0,0,7.31,4.8q4.32,2.32,9.94,5.1,5.78,2.85,10.95,6a50.07,50.07,0,0,1,9.08,7,31.13,31.13,0,0,1,6.19,8.48,23.89,23.89,0,0,1,2.28,10.65,27,27,0,0,1-3.11,13.46,25.43,25.43,0,0,1-8.4,9,36.63,36.63,0,0,1-12.19,5A66.44,66.44,0,0,1,252,622.37a60.56,60.56,0,0,1-6.3-.41q-3.75-.42-7.65-1.2a64.73,64.73,0,0,1-7.39-2A23.29,23.29,0,0,1,225.07,616.22Z"/><path class="c" d="M392.56,620.57H380V571.52H324.31v49.05h-12.6V513h12.6v47.17H380V513h12.6Z"/><path class="c" d="M464.12,622.37q-22.89,0-36.65-15.07t-13.76-39.23q0-26,14-41.4t38.18-15.46q22.27,0,35.88,15t13.62,39.22q0,26.32-13.95,41.63T464.12,622.37Zm.9-99.75q-17,0-27.53,12.22t-10.58,32.1q0,19.88,10.32,32t26.89,12.12q17.7,0,27.9-11.55t10.2-32.33q0-21.3-9.9-32.93T465,522.62Z"/><path class="c" d="M536.57,620.57V513h30.6q14,0,22.13,6.82a22.06,22.06,0,0,1,8.17,17.78,26.16,26.16,0,0,1-5,15.9,26.69,26.69,0,0,1-13.65,9.6v.3q10.88,1.27,17.4,8.21t6.53,18q0,13.8-9.9,22.35t-25,8.55Zm12.6-96.15v34.72h12.9q10.35,0,16.28-5t5.92-14.07q0-15.68-20.62-15.67Zm0,46.05v38.7h17.1q11.1,0,17.22-5.25t6.11-14.4q0-19-26-19Z"/><path class="c" d="M705.48,620.57h-12.6V571.52H637.23v49.05h-12.6V513h12.6v47.17h55.65V513h12.6Z"/><path class="c" d="M746.28,620.57h-12.6V513h12.6Z"/><path class="c" d="M838.16,524.42h-31v96.15h-12.6V524.42h-31V513h74.62Z"/><path class="c" d="M1006.78,620.57H994.25V548.42q0-8.55,1-20.93H995a66.88,66.88,0,0,1-3.23,10.43L955,620.57h-6.15l-36.68-82.05a64.45,64.45,0,0,1-3.22-11h-.3q.6,6.45.6,21.08v72H897.12V513h16.65l33,75a96,96,0,0,1,5,12.9h.45q3.23-8.85,5.18-13.2L991,513h15.76Z"/><path class="c" d="M1118.31,620.57h-14L1093,590.42h-45.61l-10.72,30.15h-14L1063.85,513h13.05Zm-29.48-41.48L1072,533.27a43.88,43.88,0,0,1-1.65-7.2h-.3a40.23,40.23,0,0,1-1.72,7.2l-16.73,45.82Z"/><path class="c" d="M1189.94,620.57h-55.81V513h12.6v96.15h43.21Z"/><path class="c" d="M1294.12,620.57h-13.95l-11.4-30.15h-45.61l-10.72,30.15h-14L1239.66,513h13Zm-29.48-41.48-16.88-45.82a43.06,43.06,0,0,1-1.64-7.2h-.31a40.23,40.23,0,0,1-1.72,7.2l-16.73,45.82Z"/><path class="c" d="M1387.05,620.57h-15l-18-30.15a66.58,66.58,0,0,0-4.8-7.16,27.07,27.07,0,0,0-4.77-4.84,16.5,16.5,0,0,0-5.25-2.74,21.75,21.75,0,0,0-6.34-.86h-10.35v45.75h-12.6V513H1342a45.65,45.65,0,0,1,13,1.76,29.11,29.11,0,0,1,10.35,5.36,25,25,0,0,1,6.86,9,29.77,29.77,0,0,1,2.48,12.57,30.09,30.09,0,0,1-1.69,10.31,27.06,27.06,0,0,1-4.8,8.36,29.39,29.39,0,0,1-7.5,6.27,38.67,38.67,0,0,1-9.86,4v.3a22.27,22.27,0,0,1,4.68,2.74,25.25,25.25,0,0,1,3.79,3.63,47,47,0,0,1,3.56,4.77c1.18,1.77,2.49,3.84,3.94,6.18Zm-64.51-96.15v39h17.1a25.93,25.93,0,0,0,8.74-1.43,20.26,20.26,0,0,0,6.94-4.08,18.7,18.7,0,0,0,4.58-6.53,21.81,21.81,0,0,0,1.65-8.66q0-8.62-5.59-13.47t-16.17-4.83Z"/><path class="c" d="M1468.8,513l-35.47,67.8v39.75h-12.61V581.12L1386.15,513h14.32l24.08,48.6c.3.6,1.17,2.8,2.63,6.6h.22a39.46,39.46,0,0,1,2.85-6.6l25.2-48.6Z"/><path class="c" d="M1555.21,620.57h-14l-11.4-30.15h-45.61l-10.72,30.15h-14L1500.76,513h13Zm-29.48-41.48-16.87-45.82a42.85,42.85,0,0,1-1.65-7.2h-.3a40.11,40.11,0,0,1-1.73,7.2l-16.72,45.82Z"/><path class="c" d="M1600.2,236a6.86,6.86,0,0,1-.61,2.93,6.52,6.52,0,0,1-1.7,2.26,8,8,0,0,1-2.65,1.45,10.84,10.84,0,0,1-3.41.51,9.93,9.93,0,0,1-5.41-1.29V239a8.69,8.69,0,0,0,5.51,1.89,7.5,7.5,0,0,0,2.25-.32,5,5,0,0,0,1.73-.91,4.1,4.1,0,0,0,1.11-1.44,4.53,4.53,0,0,0,.39-1.91q0-4.66-6.64-4.67h-2v-2.31h1.87q5.88,0,5.88-4.38c0-2.7-1.5-4.05-4.48-4.05a7.71,7.71,0,0,0-4.74,1.69v-2.63a10.37,10.37,0,0,1,5.42-1.37,8.18,8.18,0,0,1,2.7.42,6.27,6.27,0,0,1,2.08,1.16,5.21,5.21,0,0,1,1.33,1.79,5.49,5.49,0,0,1,.48,2.31c0,3.13-1.59,5.15-4.75,6v.07a7.7,7.7,0,0,1,2.24.59,5.85,5.85,0,0,1,1.78,1.19,5.15,5.15,0,0,1,1.17,1.72A5.47,5.47,0,0,1,1600.2,236Z"/><path class="c" d="M1616.82,219v15.72h3v2.49h-3v5.6h-2.69v-5.6h-11.19v-2.35q1.56-1.77,3.15-3.76c1.07-1.34,2.08-2.69,3.05-4.06s1.87-2.74,2.69-4.11a36.09,36.09,0,0,0,2.08-3.93ZM1606,234.69h8.12V223q-1.25,2.18-2.36,3.88c-.74,1.14-1.44,2.18-2.11,3.11s-1.31,1.77-1.92,2.52Z"/><path class="c" d="M1092.22,699.13a2.64,2.64,0,0,1,.11-.73,2.85,2.85,0,0,1,.33-.68,2.63,2.63,0,0,1,.53-.58,2.49,2.49,0,0,1,.71-.41,2.67,2.67,0,0,1-.94-.85,2,2,0,0,1-.35-1.14,2.18,2.18,0,0,1,.2-.93,2.15,2.15,0,0,1,.53-.74,2.47,2.47,0,0,1,.82-.48,3,3,0,0,1,2,0,2.34,2.34,0,0,1,.81.49,2.21,2.21,0,0,1,.54.74,2.17,2.17,0,0,1,.19.92,2,2,0,0,1-.35,1.14.67.67,0,1,0-.22,1.26,2.76,2.76,0,0,1,.85,1.26,2.64,2.64,0,0,1,.11.73,2.75,2.75,0,0,1-.21,1.09,2.6,2.6,0,0,1-.61.85,2.86,2.86,0,0,1-.93.55,3.55,3.55,0,0,1-1.2.19,3.5,3.5,0,0,1-1.19-.19,2.86,2.86,0,0,1-.93-.55,2.46,2.46,0,0,1-.61-.85A2.59,2.59,0,0,1,1092.22,699.13Zm1.13-.09a2.11,2.11,0,0,0,.13.77,1.65,1.65,0,0,0,.37.58,1.56,1.56,0,0,0,.57.37,2.06,2.06,0,0,0,.76.13,1.93,1.93,0,0,0,.73-.13,1.54,1.54,0,0,0,.58-.38,1.69,1.69,0,0,0,.39-.58,2.06,2.06,0,0,0,.13-.76,1.87,1.87,0,0,0-.13-.71,1.79,1.79,0,0,0-.37-.59,1.72,1.72,0,0,0-.58-.4,1.79,1.79,0,0,0-.75-.15,1.85,1.85,0,0,0-1.31.52,1.77,1.77,0,0,0-.38.58A2,2,0,0,0,1093.35,699Zm.32-4.22a1.53,1.53,0,0,0,.12.6,1.75,1.75,0,0,0,.32.48,1.39,1.39,0,0,0,.48.32,1.49,1.49,0,0,0,1.17,0,1.6,1.6,0,0,0,.81-.81,1.45,1.45,0,0,0,.12-.59,1.51,1.51,0,0,0-.12-.61,1.49,1.49,0,0,0-.32-.48,1.39,1.39,0,0,0-.48-.32,1.45,1.45,0,0,0-.59-.12,1.56,1.56,0,0,0-.62.12,1.5,1.5,0,0,0-.78.81A1.73,1.73,0,0,0,1093.67,694.82Z"/><path class="c" d="M1214.14,713.56a1.14,1.14,0,0,1-.09.46,1,1,0,0,1-.25.36,1.26,1.26,0,0,1-.39.23,1.7,1.7,0,0,1-.51.08,1.4,1.4,0,0,1-.73-.15v-.42a1.35,1.35,0,0,0,.73.22,1,1,0,0,0,.35-.05.87.87,0,0,0,.26-.16.67.67,0,0,0,.16-.24.78.78,0,0,0,.06-.31.68.68,0,0,0-.23-.54,1.07,1.07,0,0,0-.67-.19h-.59l.12-1.76H1214v.37h-1.27l-.08,1h.33a1.81,1.81,0,0,1,.49.07,1.17,1.17,0,0,1,.38.21.82.82,0,0,1,.23.34A1.19,1.19,0,0,1,1214.14,713.56Z"/><path class="c" d="M1295.71,681.74a.75.75,0,0,1,0,.26.74.74,0,0,1-.16.2.71.71,0,0,1-.23.12.94.94,0,0,1-.3,0,.85.85,0,0,1-.48-.12V682a.79.79,0,0,0,.49.17.64.64,0,0,0,.2,0,.53.53,0,0,0,.15-.08.41.41,0,0,0,.1-.13.47.47,0,0,0,0-.17c0-.27-.19-.41-.58-.41h-.18v-.2h.17c.34,0,.52-.13.52-.39s-.14-.36-.4-.36a.68.68,0,0,0-.42.15v-.23a1,1,0,0,1,.48-.12.88.88,0,0,1,.24,0,.54.54,0,0,1,.18.11.4.4,0,0,1,.12.16.42.42,0,0,1,0,.2.51.51,0,0,1-.42.53h0a.59.59,0,0,1,.2,0l.16.1a.54.54,0,0,1,.1.16A.38.38,0,0,1,1295.71,681.74Z"/><path class="c" d="M1295.44,760.45a.47.47,0,0,0,0-.17.25.25,0,0,0-.08-.12.35.35,0,0,0-.12-.07l-.15,0a.32.32,0,0,0-.14,0l-.13,0-.12.08-.11.1v-.25a.54.54,0,0,1,.22-.15.75.75,0,0,1,.31-.06,1,1,0,0,1,.24,0,.72.72,0,0,1,.19.11.57.57,0,0,1,.12.18.6.6,0,0,1,0,.24.85.85,0,0,1,0,.23.82.82,0,0,1-.09.19.7.7,0,0,1-.14.17,1.92,1.92,0,0,1-.21.16l-.24.18a.69.69,0,0,0-.15.14.38.38,0,0,0-.08.13.41.41,0,0,0,0,.16h1V762h-1.3v-.1a.88.88,0,0,1,0-.24.62.62,0,0,1,.1-.2.76.76,0,0,1,.18-.18l.26-.21a1.06,1.06,0,0,0,.19-.16.55.55,0,0,0,.13-.14.52.52,0,0,0,.06-.16A.41.41,0,0,0,1295.44,760.45Z"/><path class="c" d="M1267.57,759.25h-.08v-.61l0,0,0,0,0,0-.05,0v-.08l.06,0,.06,0,0,0,0,0h0Z"/><path class="c" d="M1254.69,726.53h-.08v-.6l0,0,0,0,0,0,0,0v-.08l0,0,.06,0,0,0,.05,0h0Z"/><line class="d" x1="11.67" y1="6.8" x2="1065.95" y2="1062.76"/><line class="d" x1="1717.69" y1="6.8" x2="1065.95" y2="659.58"/><line class="d" x1="1315.14" y1="659.58" x2="1717.69" y2="1062.76"/><line class="d" x1="1065.95" y1="1062.76" x2="1315.14" y2="813.17"/><line class="d" x1="1066.56" y1="658.15" x2="1219.91" y2="811.75"/><line class="d" x1="1065.34" y1="810.73" x2="1219.91" y2="658.15"/><line class="d" x1="1313.59" y1="753.74" x2="1276.8" y2="717.17"/><line class="b" x1="864" y1="1065.75" x2="864" y2="3.81"/></svg>