<svg id="Layer_1" data-name="Layer 1" xmlns="http://www.w3.org/2000/svg" viewBox="0 0 426.13 369.04"><defs><style>.cls-1,.cls-10,.cls-11,.cls-12,.cls-13,.cls-14,.cls-15,.cls-16,.cls-17,.cls-2,.cls-3,.cls-4,.cls-5,.cls-6,.cls-7,.cls-8,.cls-9{fill:none;stroke:#231f20;stroke-miterlimit:10;}.cls-2{stroke-width:0.97px;}.cls-3{stroke-width:0.94px;}.cls-4{stroke-width:0.91px;}.cls-5{stroke-width:0.88px;}.cls-6{stroke-width:0.84px;}.cls-7{stroke-width:0.81px;}.cls-8{stroke-width:0.78px;}.cls-9{stroke-width:0.75px;}.cls-10{stroke-width:0.72px;}.cls-11{stroke-width:0.69px;}.cls-12{stroke-width:0.66px;}.cls-13{stroke-width:0.63px;}.cls-14{stroke-width:0.59px;}.cls-15{stroke-width:0.56px;}.cls-16{stroke-width:0.53px;}.cls-17{stroke-width:0.5px;}</style></defs><polygon class="cls-1" points="319.31 0.5 106.82 0.5 0.58 184.52 106.82 368.54 319.31 368.54 425.55 184.52 319.31 0.5"/><polygon class="cls-2" points="413.72 187.02 315.56 12 114.91 9.5 12.41 182.02 110.57 357.04 311.23 359.54 413.72 187.02"/><polygon class="cls-3" points="401.88 189.52 311.81 23.5 122.99 18.5 24.25 179.52 114.32 345.54 303.14 350.54 401.88 189.52"/><polygon class="cls-4" points="390.05 192.03 308.06 35 131.07 27.5 36.09 177.01 118.08 334.04 295.06 341.54 390.05 192.03"/><polygon class="cls-5" points="378.21 194.53 304.3 46.51 139.16 36.5 47.92 174.51 121.83 322.54 286.97 332.54 378.21 194.53"/><polygon class="cls-6" points="366.37 197.03 300.55 58.01 147.25 45.5 59.76 172.01 125.58 311.03 278.89 323.54 366.37 197.03"/><polygon class="cls-7" points="354.54 199.53 296.8 69.51 155.33 54.5 71.59 169.51 129.33 299.53 270.8 314.54 354.54 199.53"/><polygon class="cls-8" points="342.7 202.03 293.05 81.01 163.41 63.5 83.43 167.01 133.08 288.03 262.72 305.54 342.7 202.03"/><polygon class="cls-9" points="330.86 204.53 289.3 92.51 171.5 72.5 95.27 164.51 136.83 276.53 254.63 296.54 330.86 204.53"/><polygon class="cls-10" points="319.03 207.04 285.55 104.01 179.58 81.5 107.1 162 140.58 265.03 246.55 287.55 319.03 207.04"/><polygon class="cls-11" points="307.19 209.54 281.8 115.51 187.67 90.5 118.94 159.5 144.34 253.53 238.46 278.55 307.19 209.54"/><polygon class="cls-12" points="295.36 212.04 278.04 127.01 195.75 99.49 130.77 157 148.09 242.03 230.38 269.55 295.36 212.04"/><polygon class="cls-13" points="283.52 214.54 274.29 138.51 203.84 108.49 142.61 154.5 151.84 230.53 222.29 260.55 283.52 214.54"/><polygon class="cls-14" points="271.68 217.04 270.54 150.02 211.92 117.49 154.45 152 155.59 219.02 214.21 251.55 271.68 217.04"/><polygon class="cls-15" points="259.85 219.54 266.79 161.52 220.01 126.49 166.28 149.5 159.34 207.52 206.12 242.55 259.85 219.54"/><polygon class="cls-16" points="248.01 222.05 263.04 173.02 228.09 135.49 178.12 146.99 163.09 196.02 198.04 233.55 248.01 222.05"/><polygon class="cls-17" points="189.96 224.55 236.18 224.55 259.29 184.52 236.18 144.49 189.96 144.49 166.84 184.52 189.96 224.55"/></svg>