<!-- Generator: Adobe Illustrator 22.0.0, SVG Export Plug-In  -->
<svg version="1.1"
	 xmlns="http://www.w3.org/2000/svg" xmlns:xlink="http://www.w3.org/1999/xlink" xmlns:a="http://ns.adobe.com/AdobeSVGViewerExtensions/3.0/"
	 x="0px" y="0px" width="755.8px" height="435.9px" viewBox="0 0 755.8 435.9"
	 style="overflow:scroll;enable-background:new 0 0 755.8 435.9;" xml:space="preserve">
<style type="text/css">
	.st0{fill:none;stroke:#000000;stroke-width:2;stroke-miterlimit:10;}
</style>
<defs>
</defs>
<g>
	<path class="st0" d="M719.4,364H350.7c-19.5,0-35.4,15.9-35.4,35.4v0c0,19.5,15.9,35.4,35.4,35.4h368.7c19.5,0,35.4-15.9,35.4-35.4
		v0C754.8,380,738.9,364,719.4,364z M725.5,417.4c-4.6,4.6-11,7.5-18,7.5h-345c-14,0-25.4-11.4-25.4-25.4c0-7,2.9-13.3,7.5-18
		c4.6-4.6,11-7.5,17.9-7.5h345c14,0,25.4,11.4,25.4,25.4C733,406.4,730.1,412.8,725.5,417.4z"/>
	<path class="st0" d="M733,399.4c0,7-2.9,13.3-7.5,17.9c-4.6,4.6-11,7.5-18,7.5h-345c-14,0-25.4-11.4-25.4-25.4c0-7,2.9-13.3,7.5-18
		c4.6-4.6,11-7.5,17.9-7.5h345C721.5,374,733,385.5,733,399.4z"/>
	<path class="st0" d="M733,399.4c0,7-2.9,13.3-7.5,17.9c-4.6,4.6-11,7.5-18,7.5h-345c-14,0-25.4-11.4-25.4-25.4c0-7,2.9-13.3,7.5-18
		c4.6-4.6,11-7.5,17.9-7.5h345C721.5,374,733,385.5,733,399.4z"/>
	<path class="st0" d="M727.8,334.9H342.3c-2.9,0-5.2,2.3-5.2,5.2l0,0c0,2.9,2.3,5.2,5.2,5.2h385.4c2.9,0,5.2-2.3,5.2-5.2l0,0
		C733,337.2,730.6,334.9,727.8,334.9z"/>
	<path class="st0" d="M411,202.2c-7-3.9-15.1-6.1-23.6-6.1c-15.5,0-29.3,7.2-38.4,18.5l-105.1-152l-20.3-29.4
		c-6.4-8.5-9.1-17.3,3.7-27c3.4-2.5,6.4-4.1,9.1-4.8h0c1.3-0.3,2.5-0.5,3.6-0.5c5.8,0,10.3,3.9,14.2,9.2l155.3,189.6
		C410.1,200.5,410.6,201.3,411,202.2z"/>
	<path class="st0" d="M243.9,62.6L77.7,209c-5.6,5.3-11.6,8.8-18.7,5.8l8,95c-27.1,0-66,1-66-28.7c0-25.5,23-65.5,46.6-76
		c-2.8-3.7-3.9-7.1-3.9-10.2c0-5.1,3.2-9.6,7.5-13.7L221.4,4.9c3.7-3.5,9.1-4.6,15-3.4c-2.7,0.7-5.8,2.2-9.1,4.8
		c-12.8,9.7-10.1,18.5-3.7,27L243.9,62.6z"/>
	<path class="st0" d="M266,35.7c0,4.5-1.4,8.5-4.4,11.3l-17.7,15.6l-20.3-29.4c-6.4-8.5-9.1-17.3,3.7-27c3.4-2.5,6.4-4.1,9.1-4.8h0
		c6.4,1.3,13.3,5.1,19,11.1C262.3,19.8,266,28.4,266,35.7z"/>
	<path class="st0" d="M436.6,245.4v21.5c0,27.1-22.2,49.3-49.3,49.3c-27.1,0-49.3-22.2-49.3-49.3v-21.5c0-11.6,4.1-22.3,10.9-30.8
		c9-11.3,22.9-18.5,38.4-18.5c8.5,0,16.6,2.2,23.6,6.1c4.1,2.3,7.9,5.1,11.1,8.4C431.1,219.5,436.6,231.8,436.6,245.4z"/>
	<g>
		<path class="st0" d="M692.1,166.1v81.3c0,37.8-30.9,68.7-68.8,68.7h-97.9c-37.8,0-68.8-30.9-68.8-68.7v-52.3
			c0-37.8,107.9-97.8,145.8-97.8h20.9C661.2,97.4,692.1,128.3,692.1,166.1z"/>
		<path class="st0" d="M677.7,171.1v71.3c0,26.1-16.8,48.4-40.1,56.8c-6.3,2.3-13.2,3.5-20.3,3.5h-85.9c-7,0-13.7-1.2-20-3.4
			c-0.1,0-0.1,0-0.2-0.1c-23.3-8.3-40.2-30.7-40.2-56.8v-45.8c0-33.2,94.7-85.8,127.9-85.8h18.3
			C650.6,110.8,677.7,137.9,677.7,171.1z"/>
		<path class="st0" d="M495.4,187.9h182.3v55.3c0,26.1-16.7,48.4-39.9,56.8c-5.4,1.8-11.2,2.7-17.3,2.7h-91.3
			c-5.9,0-11.6-0.9-16.9-2.6c-0.1,0-0.1,0-0.2-0.1c-23.1-7.4-40-29.2-40-54.7c0-10.8-0.9-20.9-0.9-29.5c0-4.3,0.2-8.3,0.9-11.7
			C474.1,194.1,480,187.9,495.4,187.9z"/>
	</g>
	<path class="st0" d="M622.1,92.1h-21c-4.1,0-7.5-3.4-7.5-7.5v0c0-4.1,3.4-7.5,7.5-7.5h21c4.1,0,7.5,3.4,7.5,7.5v0
		C629.6,88.7,626.2,92.1,622.1,92.1z"/>
	<line class="st0" x1="69.7" y1="309.8" x2="89" y2="309.8"/>
</g>
</svg>
