<!-- Generator: Adobe Illustrator 22.0.0, SVG Export Plug-In  -->
<svg version="1.1"
	 xmlns="http://www.w3.org/2000/svg" xmlns:xlink="http://www.w3.org/1999/xlink" xmlns:a="http://ns.adobe.com/AdobeSVGViewerExtensions/3.0/"
	 x="0px" y="0px" width="521.7px" height="274.5px" viewBox="0 0 521.7 274.5"
	 style="overflow:scroll;enable-background:new 0 0 521.7 274.5;" xml:space="preserve">
<style type="text/css">
	.st0{fill:none;stroke:#000000;stroke-miterlimit:10;}
	.st1{stroke:#000000;stroke-miterlimit:10;}
</style>
<defs>
</defs>
<g>
	<path class="st0" d="M494.2,39.5C453.1-8.3,379.6-12.6,328.7,29.1C310,20,289,14.9,266.9,14.9h-12.6c-22.2,0-43.4,5.2-62.3,14.4
		C141.1-12.2,68-7.9,27.2,39.4C17,51.3,9.7,64.8,5.4,79.1c-13.3,43.5,0.6,94.1,39,127.2c24.9,21.4,55.4,31.5,85,30.7
		c24.5,27.9,58,28.5,62.9,28.5c17.7,4.5,41.6,8.7,70,8.5c26.8-0.2,49.5-4.2,66.5-8.5c25.2,0,47.4-11,62.7-28.2
		c29.9,1.1,60.8-9,85.9-30.5C528.5,162.9,536,88,494.2,39.5z M114.3,135.8l-4.9,33.6c-0.5,3.8-0.8,7.5-0.9,11.2
		C79.2,175.4,57,149.8,57,119c0-34.6,28.1-62.7,62.7-62.7c10.2,0,19.8,2.4,28.4,6.8C130.5,83,118.4,108,114.3,135.8z M202.6,160
		c-8.6,0-15.6-7-15.6-15.6c0-8.6,7-15.5,15.6-15.5s15.5,7,15.5,15.5C218.1,153.1,211.2,160,202.6,160z M275.1,209
		c-0.8,2.3-2.9,3.9-5.5,3.9c-2.1,0-4-1.1-5-2.8c-1.3,0-2.6,0-4,0c-1.2,0-2.4,0-3.6,0c-1,1.7-2.9,2.8-5,2.8c-2.5,0-4.6-1.5-5.4-3.7
		c-4.8-1.6-7.9-5.9-7.9-17.1c0-20.1,9.8-54.8,21.9-54.8c12.1,0,21.9,34.7,21.9,54.8C282.5,202.9,279.6,207.3,275.1,209z M313.4,160
		c-8.6,0-15.6-7-15.6-15.6c0-8.6,7-15.5,15.6-15.5c8.6,0,15.6,7,15.6,15.5C329,153.1,322,160,313.4,160z M412.8,180.7
		c-0.1-3.7-0.4-7.5-0.9-11.3l-4.9-33.6c-4.1-27.8-16.1-52.8-33.6-72.7c8.6-4.4,18.3-6.9,28.5-6.9c34.6,0,62.7,28.1,62.7,62.7
		C464.5,149.9,442.2,175.5,412.8,180.7z"/>
	<path class="st0" d="M148,63.1c-17.5,19.9-29.6,44.9-33.7,72.8l-4.9,33.6c-0.5,3.8-0.8,7.5-0.9,11.2C79.2,175.4,57,149.8,57,119
		c0-34.6,28.1-62.7,62.7-62.7C129.8,56.3,139.5,58.7,148,63.1z"/>
	<path class="st0" d="M218.1,144.5c0,8.6-7,15.6-15.5,15.6s-15.6-7-15.6-15.6c0-8.6,7-15.5,15.6-15.5S218.1,135.9,218.1,144.5z"/>
	<path class="st0" d="M329,144.5c0,8.6-7,15.6-15.6,15.6c-8.6,0-15.6-7-15.6-15.6c0-8.6,7-15.5,15.6-15.5
		C322,128.9,329,135.9,329,144.5z"/>
	<path class="st0" d="M464.5,119c0,30.9-22.4,56.6-51.8,61.7c-0.1-3.7-0.4-7.5-0.9-11.3l-4.9-33.6c-4.1-27.8-16.1-52.8-33.6-72.7
		c8.6-4.4,18.3-6.9,28.5-6.9C436.5,56.3,464.5,84.3,464.5,119z"/>
	<path class="st0" d="M148,63.1c-17.5,19.9-29.6,44.9-33.7,72.8l-4.9,33.6c-0.5,3.8-0.8,7.5-0.9,11.2C79.2,175.4,57,149.8,57,119
		c0-34.6,28.1-62.7,62.7-62.7C129.8,56.3,139.5,58.7,148,63.1z"/>
	<path class="st0" d="M464.5,119c0,30.9-22.4,56.6-51.8,61.7c-0.1-3.7-0.4-7.5-0.9-11.3l-4.9-33.6c-4.1-27.8-16.1-52.8-33.6-72.7
		c8.6-4.4,18.3-6.9,28.5-6.9C436.5,56.3,464.5,84.3,464.5,119z"/>
	<path class="st0" d="M329,144.5c0,8.6-7,15.6-15.6,15.6c-8.6,0-15.6-7-15.6-15.6c0-8.6,7-15.5,15.6-15.5
		C322,128.9,329,135.9,329,144.5z"/>
	<path class="st0" d="M218.1,144.5c0,8.6-7,15.6-15.5,15.6s-15.6-7-15.6-15.6c0-8.6,7-15.5,15.6-15.5S218.1,135.9,218.1,144.5z"/>
	<path class="st0" d="M257,210.1c-1,1.7-2.9,2.8-5,2.8c-2.5,0-4.6-1.5-5.4-3.7C249.5,210.2,253.1,210.2,257,210.1z"/>
	<path class="st0" d="M275.1,209c-0.8,2.3-2.9,3.9-5.5,3.9c-2.1,0-4-1.1-5-2.8C268.6,210.2,272.2,210.1,275.1,209z"/>
	<path class="st1" d="M218.1,144.5c0,8.6-7,15.6-15.5,15.6s-15.6-7-15.6-15.6c0-8.6,7-15.5,15.6-15.5S218.1,135.9,218.1,144.5z"/>
	<path class="st1" d="M329,144.5c0,8.6-7,15.6-15.6,15.6c-8.6,0-15.6-7-15.6-15.6c0-8.6,7-15.5,15.6-15.5
		C322,128.9,329,135.9,329,144.5z"/>
	<g>
		<path class="st0" d="M257,210.1c-1,1.7-2.9,2.8-5,2.8c-2.5,0-4.6-1.5-5.4-3.7C249.5,210.2,253.1,210.2,257,210.1z"/>
		<path class="st0" d="M275.1,209c-0.8,2.3-2.9,3.9-5.5,3.9c-2.1,0-4-1.1-5-2.8C268.6,210.2,272.2,210.1,275.1,209z"/>
		<path class="st0" d="M282.5,192.1c0,10.8-2.9,15.2-7.4,17c-2.9,1.1-6.5,1.1-10.5,1.1c-1.3,0-2.6,0-4,0c-1.2,0-2.4,0-3.6,0
			c-3.9,0.1-7.5,0.1-10.4-0.9c-4.8-1.6-7.9-5.9-7.9-17.1c0-20.1,9.8-54.8,21.9-54.8C272.7,137.2,282.5,172,282.5,192.1z"/>
	</g>
</g>
</svg>
