<!-- Generator: Adobe Illustrator 22.0.0, SVG Export Plug-In  -->
<svg version="1.1"
	 xmlns="http://www.w3.org/2000/svg" xmlns:xlink="http://www.w3.org/1999/xlink" xmlns:a="http://ns.adobe.com/AdobeSVGViewerExtensions/3.0/"
	 x="0px" y="0px" width="817.1px" height="1074.5px" viewBox="0 0 817.1 1074.5"
	 style="overflow:scroll;enable-background:new 0 0 817.1 1074.5;" xml:space="preserve">
<style type="text/css">
	.st0{fill:none;stroke:#4D4D4D;stroke-width:5;stroke-miterlimit:10;}
</style>
<defs>
</defs>
<polygon class="st0" points="715.6,528 714.7,528.4 338.3,689.2 289.2,710.2 256.1,724.3 150,769.7 106,788.5 5.2,831.6 5.2,829.2
	39.1,733.5 185.8,319.3 185.8,319.3 221.2,219.3 221.2,219.3 262.1,103.7 262.5,102.7 "/>
<polygon class="st0" points="5.2,829.2 5.2,831.6 4.2,832 "/>
<path class="st0" d="M801.1,541L801.1,541c-18.8,20.1-50.6,21.1-70.7,2.2L246.4,88.9c-20.1-18.8-21.1-50.6-2.2-70.7l0,0
	c18.8-20.1,50.6-21.1,70.7-2.2l484.1,454.3C819,489.1,820,520.9,801.1,541z"/>
<path class="st0" d="M150,769.7l-0.1,47.3l-0.6,207.5c0,15.7-12.8,28.5-28.5,28.5s-28.5-12.8-28.5-28.5V939c0-4.1-1.7-7.9-4.4-10.6
	c-2.7-2.7-6.5-4.4-10.6-4.4c-8.3,0-15,6.7-15,15v104.5c0,15.7-12.8,28.5-28.5,28.5s-28.5-12.8-28.5-28.5V831.6L106,788.5L150,769.7z
	"/>
<path class="st0" d="M351.1,291.4c0,23.4-9.6,44.6-25,60c-15.4,15.4-36.7,25-60,25c-37,0-68.7-24-80.3-57.1v0l35.4-99.9v0
	c13-8.2,28.5-12.9,44.9-12.9c23.4,0,44.6,9.6,60,25C341.5,246.8,351.1,268,351.1,291.4z"/>
<path class="st0" d="M256.1,724.3L150,769.7l-44,18.8c-12-14.7-19.2-33.4-19.2-53.7c0-23.4,9.6-44.6,25-60c15.4-15.4,36.7-25,60-25
	s44.6,9.6,60,25C244.8,687.9,253.7,705.1,256.1,724.3z"/>
<path class="st0" d="M406.6,615L406.6,615c-46.8,0-85-38.3-85-85v0c0-46.7,38.2-85,85-85h0c46.7,0,85,38.2,85,85v0
	C491.6,576.7,453.4,615,406.6,615z"/>
<rect x="365.7" y="351" transform="matrix(0.994 -0.1091 0.1091 0.994 -38.5785 49.2409)" class="st0" width="130.4" height="52.7"/>
<polygon class="st0" points="338.3,689.2 289.2,710.2 271.1,636.9 322.2,624.3 "/>
<circle class="st0" cx="578.3" cy="500.6" r="45.6"/>
<circle class="st0" cx="578.3" cy="500.6" r="30.9"/>
<path class="st0" d="M265.1,570.1c-9.3,17.6-36.6,30.1-51.5,20.4c-2.7-1.8-7.9-6.1-10.3-16.9L191,603.8l-27.3-16.1l20.6-25.5
	c-5.4,1.5-13.9,2.6-21.1-1.6c-15.4-9-16.6-38-5.9-54.2c14.8-22.4,53.5-21.9,77.3-7.9C258.4,512.6,277.6,546.5,265.1,570.1z"/>
</svg>
