<!-- Generator: Adobe Illustrator 22.0.0, SVG Export Plug-In  -->
<svg version="1.1"
	 xmlns="http://www.w3.org/2000/svg" xmlns:xlink="http://www.w3.org/1999/xlink" xmlns:a="http://ns.adobe.com/AdobeSVGViewerExtensions/3.0/"
	 x="0px" y="0px" width="678.9px" height="606.4px" viewBox="0 0 678.9 606.4"
	 style="overflow:scroll;enable-background:new 0 0 678.9 606.4;" xml:space="preserve">
<style type="text/css">
	.st0{fill:none;stroke:#000000;stroke-miterlimit:10;}
	.st1{fill:none;stroke:#000000;stroke-width:2;stroke-miterlimit:10;}
	.st2{fill:none;}
</style>
<defs>
</defs>
<path class="st0" d="M107.3,605.2L107.3,605.2C107.3,605.2,107.3,605.2,107.3,605.2L107.3,605.2z"/>
<path class="st1" d="M592.8,118.2v22.1c0,0.8,0,1.6-0.1,2.4c0,0.5-0.1,1-0.1,1.5c0,0.4-0.1,0.8-0.1,1.2c-0.1,1.2-0.3,2.3-0.5,3.5
	c-0.1,0.3-0.1,0.6-0.2,0.9c-0.1,0.5-0.2,1-0.3,1.5c-0.1,0.3-0.1,0.5-0.2,0.8c-0.2,0.7-0.3,1.4-0.5,2c-0.1,0.4-0.2,0.8-0.4,1.2
	c0,0.1,0,0.1-0.1,0.2c-0.2,0.7-0.5,1.5-0.7,2.2c0,0,0,0,0,0c-0.3,0.8-0.6,1.5-0.9,2.3c-0.5,1.2-1.1,2.5-1.7,3.6
	c-0.1,0.3-0.3,0.5-0.4,0.8c-1.7,3.1-3.7,6-5.9,8.6c-0.4,0.4-0.8,0.9-1.2,1.3C529,127.3,443.3,96.2,346,96.2c-17.7,0-35,1-51.8,3V5.9
	C313.4,2.7,333,1,353.1,1C435,1,510.4,29,570.2,75.9c0,0,0,0,0,0c0.1,0.1,0.2,0.2,0.3,0.3c2,1.6,3.9,3.1,5.9,4.7
	c0.1,0.1,0.2,0.2,0.3,0.2c0,0,0,0,0,0c8,7.5,13.6,17.6,15.4,28.9C592.6,112.7,592.8,115.5,592.8,118.2z"/>
<path class="st1" d="M675,210.3c-4.8-5.8-10.8-10.5-17.6-13.8v0h0c-6.8-3.3-14.5-5.1-22.5-5.1h-93.2c1.4,0,2.9-0.1,4.3-0.2
	c0.4,0,0.8-0.1,1.2-0.1c0.3,0,0.7-0.1,1-0.1c0.3,0,0.6-0.1,0.9-0.1c0.6-0.1,1.1-0.2,1.7-0.3c0.3,0,0.5-0.1,0.8-0.2
	c0.3-0.1,0.6-0.1,0.9-0.2c0.4-0.1,0.7-0.2,1.1-0.3c4.3-1,8.5-2.7,12.3-4.7c0.2-0.1,0.3-0.2,0.5-0.3c0.3-0.2,0.6-0.3,0.9-0.5
	c1.1-0.7,2.2-1.4,3.3-2.1c0.4-0.2,0.7-0.5,1.1-0.8c0.4-0.3,0.7-0.5,1-0.8h0c0.3-0.3,0.7-0.5,1-0.8c0.3-0.2,0.6-0.5,0.9-0.7
	c1.1-0.9,2.1-1.8,3.1-2.8c0.6-0.6,1.1-1.2,1.7-1.8c0,0,0,0,0.1-0.1c0.4-0.4,0.8-0.9,1.2-1.3c2.3-2.7,4.3-5.6,5.9-8.6
	c0.1-0.3,0.3-0.5,0.4-0.8c0.6-1.2,1.2-2.4,1.7-3.6c0.3-0.8,0.6-1.5,0.9-2.3c0,0,0,0,0,0c0.3-0.7,0.5-1.4,0.7-2.2
	c0-0.1,0-0.1,0.1-0.2c0.1-0.4,0.3-0.8,0.4-1.2c0.2-0.7,0.4-1.4,0.5-2c0.1-0.3,0.1-0.5,0.2-0.8c0.1-0.5,0.2-1,0.3-1.5
	c0.1-0.3,0.1-0.6,0.2-0.9c0.2-1.1,0.4-2.3,0.5-3.5c0.1-0.4,0.1-0.8,0.1-1.2c0-0.5,0.1-1,0.1-1.5c0-0.8,0.1-1.6,0.1-2.4v-22.1
	c0-2.8-0.2-5.5-0.7-8.1c-1.8-11.3-7.4-21.4-15.4-28.9c0,0,0,0,0,0c-0.1-0.1-0.2-0.1-0.3-0.2c0.1,0.1,0.2,0.2,0.3,0.2c0,0,0,0,0,0
	C618.8,115.8,652.6,160,675,210.3z"/>
<path class="st0" d="M107.3,605.2L107.3,605.2C107.3,605.2,107.3,605.2,107.3,605.2L107.3,605.2z"/>
<path class="st1" d="M380.7,605.2H107.3C41.7,541.2,1,451.9,1,353.1C1,186.7,116.4,47.2,271.6,10.5v40.8c-0.1,0-0.2,0.1-0.3,0.2
	c-5.6,2.4-11.1,5-16.6,7.8C150.4,112,78.3,225.2,78.3,356.4c0,1.6,0,3.1,0,4.7v0.1c0,1.1,0,2.1,0,3.2c0,4.2,0.2,8.3,0.6,12.4
	c0,0,0,0,0,0c6.2,64.9,60.1,115.6,125.8,115.6c61.8,0,113.2-44.9,124.2-104.2c-0.5,8.5-0.8,17.2-0.8,26
	C328.1,489.8,348.3,557.8,380.7,605.2z"/>
<path class="st1" d="M78.3,361.2c0.1,5.2,0.3,10.5,0.6,15.6c-0.4-4.1-0.6-8.2-0.6-12.4C78.3,363.3,78.3,362.2,78.3,361.2z"/>
<path class="st1" d="M331.7,359.4c-0.2,1.7-0.4,3.3-0.6,5c0-1.7,0-3.3-0.1-5H331.7z"/>
<path class="st2" d="M576.5,80.9c-1.9-1.6-3.9-3.2-5.9-4.7C572.7,77.6,574.6,79.2,576.5,80.9z"/>
<path class="st1" d="M579.5,174.5C579.5,174.5,579.5,174.6,579.5,174.5c-0.6,0.7-1.2,1.3-1.7,1.8c-1,1-2,1.9-3.1,2.8
	c-0.3,0.3-0.6,0.5-0.9,0.7c-0.3,0.3-0.7,0.5-1,0.8h0c-0.3,0.3-0.7,0.5-1,0.8c-0.3,0.3-0.7,0.5-1.1,0.8c-1.1,0.8-2.2,1.5-3.3,2.1
	c-0.3,0.2-0.6,0.3-0.9,0.5c-0.2,0.1-0.3,0.2-0.5,0.3c-3.8,2.1-7.9,3.7-12.3,4.7c-0.4,0.1-0.7,0.2-1.1,0.3c-0.3,0.1-0.6,0.1-0.9,0.2
	c-0.3,0.1-0.5,0.1-0.8,0.2c-0.6,0.1-1.1,0.2-1.7,0.3c-0.3,0.1-0.6,0.1-0.9,0.1c-0.3,0-0.7,0.1-1,0.1c-0.4,0.1-0.8,0.1-1.2,0.1
	c-1.4,0.1-2.9,0.2-4.3,0.2H345.4c-28.1,0-51.1-23-51.1-51V99.2c16.8-2,34.1-3,51.8-3C443.3,96.2,529,127.3,579.5,174.5z"/>
<path class="st1" d="M271.6,163.3c-0.7-4.4-0.3-9.2-0.3-14.2V51.4c0.1-0.1,0.2-0.1,0.3-0.2V163.3z"/>
<path class="st2" d="M271.3,51.4c-5.6,2.4-11.1,5-16.6,7.8c5.3-3,10.8-5.7,16.6-8V51.4z"/>
<path class="st1" d="M331.1,364.4c-0.9,7.8-1.7,15.8-2.2,23.8c0,0,0,0,0,0c-11,59.3-62.5,104.2-124.2,104.2
	c-65.7,0-119.6-50.7-125.8-115.6c0,0,0,0,0,0c-0.3-5.2-0.5-10.4-0.6-15.6v-0.1c0-1.5,0-3.1,0-4.7c0-131.2,72.1-244.4,176.4-297.3
	c-41.9,23.8-70.1,68.6-70.1,120.1c0,0.7,0,1.3,0,2v0c0,0.5,0,1.1,0,1.7v0.1c0,0.7,0,1.4,0,2.1c0,14.7,6.8,27.8,17.2,36.1
	c7.3,5.8,16.4,9.2,26.3,9.2c24,0,43.5-20.3,43.5-45.3v99.4c0,26.7-3.8,51.5,22.7,67.4c7.8,4.7,17,7.5,26.8,7.5h10
	C331,361,331.1,362.7,331.1,364.4z"/>
<path class="st1" d="M598.9,605.2H380.7c-32.3-47.4-52.6-115.4-52.6-191c0-8.8,0.3-17.4,0.8-26c0,0,0,0,0,0c0.5-8,1.2-16,2.2-23.8
	c0.2-1.7,0.4-3.3,0.6-5h21.4c60,0,115,21.5,157.7,57.2c51.8,43.3,85.4,107.6,88,179.7C598.8,599.3,598.9,602.2,598.9,605.2z"/>
<path class="st1" d="M331.7,359.4c-0.2,1.7-0.4,3.3-0.6,5c0-1.7,0-3.3-0.1-5H331.7z"/>
<path class="st1" d="M78.9,376.8c-0.4-4.1-0.6-8.2-0.6-12.4c0-1.1,0-2.1,0-3.2C78.4,366.4,78.6,371.6,78.9,376.8z"/>
<path class="st1" d="M331.1,364.4c0,8.1-0.8,16.1-2.2,23.8C329.4,380.1,330.1,372.2,331.1,364.4z"/>
<path class="st1" d="M271.6,173.5v23.8c0,27.3-24.5,49.4-54.7,49.4c-12.4,0-23.8-3.7-33-10c-13.2-9-21.7-23.3-21.7-39.4
	c0-0.8,0-1.6,0.1-2.3v-0.1c0-0.6,0-1.2,0-1.8v0c0-0.7,0-1.4,0-2.1c0-56.1,35.5-105.1,88.1-131c6.8-3,13.8-5.8,20.8-8.5V158
	C271.2,163.4,270.8,168.7,271.6,173.5z"/>
<circle class="st1" cx="241.2" cy="129" r="21.8"/>
</svg>
