<!-- Generator: Adobe Illustrator 22.0.0, SVG Export Plug-In  -->
<svg version="1.1"
	 xmlns="http://www.w3.org/2000/svg" xmlns:xlink="http://www.w3.org/1999/xlink" xmlns:a="http://ns.adobe.com/AdobeSVGViewerExtensions/3.0/"
	 x="0px" y="0px" width="1209.7px" height="1200.4px" viewBox="0 0 1209.7 1200.4"
	 style="enable-background:new 0 0 1209.7 1200.4;" xml:space="preserve">
<style type="text/css">
	.st0{fill:none;stroke:#B3B3B3;stroke-width:3;stroke-miterlimit:10;}
	.st1{fill:none;stroke:#333333;stroke-width:3;stroke-miterlimit:10;}
	.st2{fill:none;stroke:#666666;stroke-width:3;stroke-miterlimit:10;}
	.st3{fill:none;stroke:#4D4D4D;stroke-width:2;stroke-miterlimit:10;}
	.st4{fill:none;stroke:#4D4D4D;stroke-miterlimit:10;}
	.st5{fill:none;stroke:#666666;stroke-miterlimit:10;}
</style>
<defs>
</defs>
<g>
	<g>
		<polygon class="st0" points="701.5,470.1 654.5,551.6 654.3,551.9 559.9,551.9 559.7,551.6 512.6,470.1 559.9,388.3 654.3,388.3
					"/>
		<polygon class="st0" points="699,670.3 652,751.8 651.8,752.1 557.3,752.1 557.2,751.8 510.1,670.3 557.3,588.5 651.8,588.5 		"/>
		<polygon class="st0" points="525.7,572.5 478.6,654 478.4,654.3 384,654.3 383.8,654 336.7,572.5 384,490.7 478.4,490.7 		"/>
		<path class="st0" d="M525.7,770.5l-47,81.5l-0.2,0.3h-77.6c-2.4-3.9-4.8-7.9-7.1-11.8c-0.7-1.1-1.3-2.2-2-3.3
			c-0.5-0.8-1-1.6-1.4-2.4c-0.2-0.4-0.4-0.7-0.6-1.1c-0.5-0.9-1-1.7-1.5-2.5c0-0.1-0.1-0.1-0.1-0.2v0c-1.1-1.9-2.2-3.9-3.3-5.8
			c-0.7-1.2-1.4-2.4-2-3.6c-0.8-1.5-1.6-2.9-2.4-4.4c-0.8-1.5-1.6-2.9-2.4-4.4c-0.6-1.1-1.2-2.2-1.8-3.4
			c-3.6-6.8-7.2-13.6-10.7-20.5c-1.4-2.8-2.8-5.6-4.1-8.3c-1.6-3.2-3.1-6.4-4.7-9.6c-1-2.2-2-4.3-3-6.4c-2-4.3-4-8.6-5.9-12.9
			l36.2-62.8h94.4L525.7,770.5z"/>
		<path class="st0" d="M525.7,364.9l-47,81.5l-0.2,0.3H384l-0.2-0.3l-37-64c1.1-1.3,2.2-2.6,3.3-3.9c1-1.2,2.1-2.4,3.1-3.6
			c0-0.1,0.1-0.1,0.2-0.2c0.7-0.8,1.4-1.6,2.1-2.4c0.1-0.1,0.2-0.2,0.3-0.3c0.6-0.6,1.1-1.3,1.7-1.9c2.1-2.3,4.1-4.5,6.3-6.7
			c1.2-1.2,2.4-2.4,3.6-3.7c1.2-1.2,2.4-2.4,3.7-3.6c2.2-2.1,4.4-4.2,6.6-6.2c0.7-0.7,1.5-1.4,2.2-2c1-1,2.1-1.9,3.1-2.8
			c0.3-0.2,0.5-0.5,0.8-0.7c1.3-1.2,2.7-2.3,4-3.4c0.9-0.8,1.9-1.6,2.8-2.4c1.8-1.5,3.7-3,5.5-4.5c1.4-1.2,2.9-2.3,4.3-3.4
			c1.5-1.1,2.9-2.2,4.4-3.3c2.7-2,5.4-3.9,8.1-5.9c0.6-0.4,1.1-0.8,1.7-1.2c1.9-1.3,3.9-2.6,5.9-3.9c2.8-1.9,5.7-3.7,8.5-5.5
			c0.7-0.4,1.3-0.8,2-1.2c2.9-1.8,5.8-3.5,8.8-5.2c0.9-0.5,1.7-1,2.6-1.5c1.7-1,3.4-1.9,5.2-2.9c1.3-0.7,2.6-1.4,3.9-2.1
			c1.9-1,3.8-2,5.8-2.9c1.6-0.8,3.3-1.6,4.9-2.4c1.4-0.7,2.8-1.4,4.2-2c0.7-0.4,1.5-0.7,2.2-1c0.7-0.3,1.4-0.6,2.1-1
			c1.4-0.7,2.9-1.3,4.3-1.9c0.5-0.2,1-0.4,1.4-0.6c1-0.4,1.9-0.8,2.9-1.2L525.7,364.9z"/>
		<path class="st0" d="M697.2,273.1L652,351.4l-0.2,0.3h-94.4l-0.2-0.3L512,273.1c1.3-0.4,2.7-0.8,4-1.2c1.1-0.3,2.3-0.7,3.4-1
			c1.3-0.4,2.6-0.7,3.9-1.1c26.8-7.3,54.2-11.2,81.2-11.2c27,0,54.5,3.9,81.3,11.2c1.7,0.4,3.4,0.9,5,1.4
			C693,271.8,695.1,272.5,697.2,273.1z"/>
		<path class="st0" d="M863.2,383.5l-39.7,68.8l-0.2,0.3h-94.4l-0.2-0.3l-47.1-81.5l47.3-81.8h9.9
			C787.1,310.8,830.8,343.6,863.2,383.5z"/>
		<path class="st0" d="M785.3,887.3c-3.4,4.9-6.8,9.6-10.3,14.3c-1.2,1.7-2.5,3.3-3.7,5c-0.9,1.3-1.9,2.5-2.8,3.7
			c-1.9,2.5-3.8,4.9-5.7,7.3c-1,1.2-1.9,2.4-2.9,3.6c-1,1.2-1.9,2.4-2.9,3.6c-1,1.2-1.9,2.3-2.9,3.5c-1.5,1.8-2.9,3.5-4.4,5.2
			c-1.5,1.7-2.9,3.4-4.4,5c-1,1.1-2,2.2-3,3.3c-2.2,2.4-4.4,4.8-6.6,7.1c-1.5,1.6-2.9,3.1-4.4,4.6c-1.3,1.4-2.7,2.7-4,4.1
			c-0.9,0.9-1.9,1.8-2.8,2.7c-1.2,1.2-2.5,2.4-3.7,3.5c-1.6,1.5-3.2,3-4.8,4.4c-0.9,0.9-1.9,1.7-2.8,2.5c-2.9,2.6-5.7,5-8.6,7.4
			c-0.9,0.8-1.9,1.5-2.8,2.3c-1.2,0.9-2.3,1.9-3.5,2.7c-0.4,0.4-0.9,0.7-1.4,1.1c-1.2,1-2.5,1.9-3.7,2.8c-0.8,0.6-1.7,1.3-2.5,1.9
			c-0.2,0.2-0.4,0.3-0.6,0.4l-11.7-20.3l47.2-81.8H785.3z"/>
		<path class="st0" d="M914.3,588.5c-6.6,36.8-18.9,78.6-35.5,121.4l-22.8-39.5l47.3-81.8H914.3z"/>
		<path class="st0" d="M353.2,670.3l-22.8,39.6c-0.8-2.1-1.6-4.3-2.4-6.4c-1.1-3-2.2-5.9-3.3-8.9c-1.2-3.4-2.5-6.8-3.6-10.2
			c-2.2-6.3-4.4-12.6-6.3-18.8c-0.7-2.1-1.3-4.1-2-6.2c-1-3.3-2-6.6-3-9.8c-2.8-9.3-5.3-18.5-7.5-27.5c-0.4-1.7-0.9-3.4-1.3-5.1
			c-0.4-1.5-0.7-3.1-1.1-4.6c-0.4-1.9-0.9-3.7-1.3-5.6c-0.7-3.1-1.3-6.1-1.9-9.1c-0.6-3.1-1.2-6.2-1.8-9.2H306L353.2,670.3z"/>
		<path class="st0" d="M919.9,533.3c0,5.9-0.2,12.2-0.8,18.6h-15.9l-0.2-0.3l-47.1-81.5l30.7-53.1
			C907.6,452.3,919.9,491.7,919.9,533.3z"/>
		<path class="st0" d="M353.2,470.1l-47.1,81.5l-0.2,0.3H290c0-0.4-0.1-0.7-0.1-1.1c-0.1-1-0.1-1.9-0.2-2.8c0-0.3-0.1-0.6-0.1-0.9
			c0-0.6-0.1-1.3-0.1-1.9c-0.1-2.6-0.2-5.2-0.3-7.8c0-1.4,0-2.8,0-4.1c0-1.3,0-2.6,0-3.9c0-1,0-2,0.1-3c0-0.4,0-0.8,0-1.3
			c0-0.7,0.1-1.4,0.1-2.1c0-0.2,0-0.4,0-0.6c0-0.8,0.1-1.6,0.1-2.4c0.1-1.1,0.1-2.3,0.2-3.4c0-0.4,0.1-0.9,0.1-1.3
			c0-0.3,0.1-0.7,0.1-1c0.1-1,0.2-2,0.3-3c0.2-1.6,0.4-3.3,0.6-4.9c0.2-1.6,0.4-3.2,0.7-4.7c0-0.1,0-0.1,0-0.2
			c0.2-1,0.3-2.1,0.5-3.1c0.2-1.3,0.4-2.6,0.7-3.9c0.1-0.7,0.3-1.4,0.4-2.1c0.3-1.7,0.7-3.3,1-5c0.2-0.9,0.4-1.7,0.6-2.5
			c0.2-0.9,0.4-1.7,0.6-2.5c0.3-1.2,0.6-2.4,0.9-3.6c0-0.1,0.1-0.3,0.1-0.4c0.3-1,0.5-2.1,0.9-3.1c0.5-2,1.1-3.9,1.7-5.9
			c0.2-0.7,0.5-1.5,0.7-2.2c0.4-1.2,0.8-2.3,1.2-3.5c0.7-2,1.4-3.9,2.1-5.9c0.3-0.9,0.7-1.8,1-2.7c0.4-1.1,0.8-2.1,1.2-3.2
			c1.5-3.7,3-7.3,4.7-10.9c0.5-1.2,1.1-2.3,1.6-3.5c0.5-1,1-2,1.5-3c0.7-1.4,1.4-2.9,2.2-4.3c0.5-1,1-1.9,1.5-2.9
			c0.6-1.1,1.2-2.2,1.8-3.4c0.6-1.1,1.2-2.2,1.9-3.4c0.6-1.1,1.3-2.2,1.9-3.3L353.2,470.1z"/>
		<path class="st0" d="M661.9,1006.5c-2.3,1.2-4.7,2.3-7,3.3c-0.7,0.3-1.4,0.6-2.2,0.9c-2.8,1.2-5.7,2.3-8.5,3.4
			c-1.3,0.5-2.6,0.9-3.9,1.3c-1.3,0.4-2.6,0.8-3.9,1.2c-0.5,0.1-0.9,0.3-1.4,0.4c-0.8,0.2-1.5,0.4-2.2,0.6
			c-9.5,2.5-18.9,3.8-28.4,3.8c-9.4,0-18.9-1.3-28.4-3.8c-1.6-0.4-3.2-0.9-4.8-1.4c-0.5-0.1-1-0.3-1.5-0.4c-0.1,0-0.2-0.1-0.3-0.1
			c-0.6-0.2-1.3-0.4-1.9-0.6c-0.1,0-0.2-0.1-0.3-0.1c-0.8-0.3-1.7-0.6-2.5-0.9c-1-0.3-2-0.7-3-1.1c-0.5-0.2-1.1-0.4-1.7-0.7
			c-0.9-0.4-1.8-0.7-2.7-1.1c-1-0.4-2.1-0.9-3.1-1.3c-2.4-1.1-4.8-2.2-7.2-3.4v0l10.1-17.6h94.4L661.9,1006.5z"/>
		<path class="st0" d="M525.7,968.4l-10.4,18.1c-1-0.8-2-1.5-3-2.3c-1.2-0.9-2.4-1.9-3.6-2.8c-4.3-3.4-8.6-7.1-12.9-10.9
			c-1-0.8-1.9-1.7-2.8-2.6c-2.8-2.6-5.7-5.3-8.5-8c-0.9-0.8-1.7-1.7-2.5-2.5c-1.8-1.7-3.5-3.5-5.3-5.3c-1-1-2-2-2.9-3
			c-3.3-3.5-6.7-7.1-9.9-10.8c-1.5-1.7-3-3.4-4.5-5.1c-6.1-7-12.1-14.4-18-22.1c-1.3-1.6-2.5-3.3-3.7-4.9c-2-2.6-4-5.3-5.9-8
			c-1.3-1.7-2.6-3.5-3.8-5.3c-1.5-2-2.9-4.1-4.4-6.2h55.1L525.7,968.4z"/>
		<polygon class="st0" points="699,869.8 652,951.3 651.8,951.6 557.3,951.6 557.2,951.3 510.1,869.8 557.3,788 651.8,788 		"/>
		<path class="st0" d="M861.9,750.4L861.9,750.4c-15.4,34.6-33.3,69-53.1,101.1h-77.4l-0.2-0.3l-47.1-81.5l47.3-81.8h94.4
			L861.9,750.4z"/>
		<polygon class="st0" points="873,572.5 826,654 825.8,654.3 731.3,654.3 731.2,654 684.1,572.5 731.3,490.7 825.8,490.7 		"/>
	</g>
	<path class="st1" d="M895.2,375.2c-0.3-0.4-0.6-0.8-0.9-1.2c-32.2-42.9-75.9-78.7-125.1-104.1c-20.8-10.8-42.5-19.7-64.8-26.4h0
		c-5.1-1.5-10.2-3-15.3-4.3c-27.9-7.2-56.4-11-84.6-11c-28.3,0-56.8,3.8-84.6,11c-5.1,1.3-10.2,2.7-15.3,4.3h0
		c-22.3,6.8-44,15.7-64.8,26.4c-48.3,25-91.3,60-123.3,101.8c-1,1.3-2,2.6-2.9,3.9c-34.1,46-54.9,100-54.9,157.6
		c0,11.5,0.8,23.9,2.4,37c0.2,1.9,0.5,3.7,0.7,5.6c7.6,55.1,28.3,121.6,58,187.2c0.1,0.3,0.3,0.6,0.4,0.9
		c16.6,36.6,35.9,72.8,57.3,106.7c40.1,63.5,87.3,118.5,136.7,150.8c0.8,0.5,1.6,1,2.4,1.5c16.7,10.7,33.7,18.8,50.8,23.7
		c1.3,0.4,2.7,0.8,4,1.1c0-0.4,0-0.8,0-1.1c11.6,3.3,23.2,5.2,34.8,5.4h0.6c11.6-0.2,23.1-2.1,34.7-5.4c17.5-5,34.9-13.3,52.1-24.5
		c0.4-0.2,0.8-0.5,1.2-0.8c49.4-32.3,96.6-87.2,136.7-150.8c0.6-0.9,1.2-1.9,1.8-2.8c21.6-34.5,41.1-71.4,57.6-108.6
		c0.1-0.2,0.2-0.5,0.3-0.8c29.6-66.3,49.9-133.3,56.6-188.2c0.1-0.5,0.1-0.9,0.2-1.4c1.5-12.6,2.3-24.5,2.3-35.6
		C950.4,475.4,929.5,421.3,895.2,375.2z M917.4,568.8c-0.1,0.5-0.1,0.9-0.2,1.4c-6,45.2-21.9,100-44.8,155.5
		c-0.1,0.3-0.2,0.5-0.3,0.8C852.2,775,827,824,798.5,867.8c-0.4,0.7-0.9,1.4-1.3,2c-0.2,0.3-0.3,0.5-0.5,0.8
		C761.6,924,721.5,969.4,680.2,996c-0.4,0.3-0.8,0.5-1.2,0.8c-0.2,0.1-0.4,0.2-0.5,0.3c-0.1,0.1-0.2,0.1-0.3,0.2
		c-15,9.5-30.1,16.4-45.3,20.4c-9.5,2.5-18.9,3.8-28.4,3.8c-9.4,0-18.9-1.3-28.4-3.8c-15-3.9-30-10.8-44.9-20.1l-0.7-0.4
		c-0.6-0.3-1.1-0.7-1.7-1.1c-41.3-26.6-81.3-72-116.4-125.5c-28.3-43-53.4-91.3-73.4-139.1c-0.1-0.3-0.3-0.6-0.4-0.9
		c-22.9-54.9-39.2-109.3-45.9-154.7c-0.3-1.9-0.5-3.8-0.8-5.6c0-0.2,0-0.3-0.1-0.5c-1.7-13-2.6-25.3-2.6-36.5
		c0-47.4,16-92.1,42.7-131c0.3-0.4,0.5-0.8,0.8-1.2c0.1-0.2,0.3-0.4,0.4-0.6c37.8-54.3,96.3-97.4,160.8-121.2c0.1,0,0.2-0.1,0.4-0.1
		c9.6-3.5,19.2-6.6,29-9.3c26.8-7.3,54.2-11.2,81.2-11.2c27,0,54.5,3.9,81.3,11.2c9.9,2.7,19.7,5.8,29.4,9.4
		c1.2,0.4,2.3,0.9,3.5,1.3c64,24.5,121.9,67.8,159,122.3c0.3,0.4,0.6,0.9,0.9,1.3c25.9,38.5,41.4,82.4,41.4,129.1
		C919.9,544.2,919,556.2,917.4,568.8z"/>
	<g>
		<g>
			<path class="st2" d="M797.2,869.8c-0.2,0.3-0.3,0.5-0.5,0.8C761.6,924,721.5,969.4,680.2,996c-0.4,0.3-0.8,0.5-1.2,0.8
				c-0.2,0.1-0.4,0.2-0.5,0.3c-0.1,0.1-0.2,0.1-0.3,0.2l-15.8-27.4H546.8l-0.2-0.4l-0.2,0.4l0.4,0.8l-15.5,26.9l-0.7-0.4
				c-0.6-0.3-1.1-0.7-1.7-1.1c-41.3-26.6-81.3-72-116.4-125.5c-28.3-43-53.4-91.3-73.4-139.1c-0.1-0.3-0.3-0.6-0.4-0.9
				c-22.9-54.9-39.2-109.3-45.9-154.7c-0.3-1.9-0.5-3.8-0.8-5.6c0-0.2,0-0.3-0.1-0.5c-1.7-13-2.6-25.3-2.6-36.5
				c0-47.4,16-92.1,42.7-131c0.3-0.4,0.5-0.8,0.8-1.2c0.1-0.2,0.3-0.4,0.4-0.6c37.8-54.3,96.3-97.4,160.8-121.2
				c0.1,0,0.2-0.1,0.4-0.1l52.5,90.9l-0.2,0.4L489,470.1l57.8,100.1h115.6l57.8,100.1l-57.6,99.7l57.6,99.7H797.2z"/>
			<polygon class="st2" points="894.2,570.2 836.4,670.3 720.8,670.3 663,570.2 720.8,470.1 836.4,470.1 			"/>
			<path class="st2" d="M797.2,869.8c-0.2,0.3-0.3,0.5-0.5,0.8C761.6,924,721.5,969.4,680.2,996c-0.4,0.3-0.8,0.5-1.2,0.8
				c-0.2,0.1-0.4,0.2-0.5,0.3c-0.1,0.1-0.2,0.1-0.3,0.2l-15.8-27.4H546.8l-0.2-0.4l-0.2,0.4l0.4,0.8l-15.5,26.9l-0.7-0.4
				c-0.6-0.3-1.1-0.7-1.7-1.1c-41.3-26.6-81.3-72-116.4-125.5c-28.3-43-53.4-91.3-73.4-139.1c-0.1-0.3-0.3-0.6-0.4-0.9
				c-22.9-54.9-39.2-109.3-45.9-154.7c-0.3-1.9-0.5-3.8-0.8-5.6c0-0.2,0-0.3-0.1-0.5c-1.7-13-2.6-25.3-2.6-36.5
				c0-47.4,16-92.1,42.7-131c0.3-0.4,0.5-0.8,0.8-1.2c0.1-0.2,0.3-0.4,0.4-0.6c37.8-54.3,96.3-97.4,160.8-121.2
				c0.1,0,0.2-0.1,0.4-0.1l52.5,90.9l-0.2,0.4L489,470.1l57.8,100.1h115.6l57.8,100.1l-57.6,99.7l57.6,99.7H797.2z"/>
			<polygon class="st2" points="894.2,570.2 836.4,670.3 720.8,670.3 663,570.2 720.8,470.1 836.4,470.1 			"/>
			<path class="st2" d="M546.8,370l-0.2,0.4l-52.6-91.2c0.1,0,0.2-0.1,0.4-0.1L546.8,370z"/>
			<polygon class="st2" points="546.8,570.2 489,670.3 373.4,670.3 315.6,570.2 373.4,470.1 489,470.1 			"/>
			<path class="st2" d="M793.1,869.8c-0.2,0.3-0.3,0.5-0.5,0.8h-71.8l-0.4-0.8H793.1z"/>
			<polygon class="st2" points="894.2,570.2 836.4,670.3 720.8,670.3 663,570.2 720.8,470.1 836.4,470.1 			"/>
			<path class="st2" d="M715.2,279.3l-52.8,91.5H546.8l-0.2-0.4l0.2-0.4l-52.5-90.9c9.6-3.5,19.2-6.6,29-9.3
				c26.8-7.3,54.2-11.2,81.2-11.2c27,0,54.5,3.9,81.3,11.2C695.7,272.5,705.6,275.7,715.2,279.3z"/>
			<polygon class="st2" points="720.2,869.8 663.2,968.5 663.2,968.5 662.6,969.5 662.4,969.9 546.8,969.9 546.6,969.5 489.2,870.2
				489,869.8 546.6,770.1 546.6,770.1 546.8,769.7 662.4,769.7 662.6,770.1 			"/>
			<path class="st2" d="M546.8,370l-0.2,0.4L489,470.1H373.4l-40.2-69.7c37.8-54.3,96.3-97.4,160.8-121.2c0.1,0,0.2-0.1,0.4-0.1
				L546.8,370z"/>
			<path class="st2" d="M372.3,469.6l-56.2,97.3l-0.5,0.8l-1.2,2h-22.6c-1.7-13-2.6-25.3-2.6-36.5c0-47.4,16-92.1,42.7-131
				c0.3-0.4,0.5-0.8,0.8-1.2l37.5,64.9L372.3,469.6z"/>
			<polygon class="st2" points="720.2,670.3 662.6,770.1 662.4,770.4 546.8,770.4 546.6,770.1 489,670.3 546.8,570.2 662.4,570.2
							"/>
			<path class="st2" d="M546.8,770.4l-57,98.8l-0.6,1l-0.2,0.3h-76.5c-28.3-43-53.4-91.3-73.4-139.1c-0.1-0.3-0.3-0.6-0.4-0.9
				l34.7-60.2H489l57,98.7l0.6,1L546.8,770.4z"/>
			<path class="st2" d="M374.4,670.3l-35.3,61.1c-0.1-0.3-0.3-0.6-0.4-0.9c-22.9-54.9-39.2-109.3-45.9-154.7
				c-0.3-1.9-0.5-3.8-0.8-5.6h24.6l1.6,2.8L374.4,670.3z"/>
			<path class="st2" d="M797.2,869.8c-0.2,0.3-0.3,0.5-0.5,0.8C761.6,924,721.5,969.4,680.2,996c-0.4,0.3-0.8,0.5-1.2,0.8
				c-0.2,0.1-0.4,0.2-0.5,0.3c-0.1,0.1-0.2,0.1-0.3,0.2l-15.8-27.4l0.2-0.4l0.6-1v0l57-98.7H797.2z"/>
			<path class="st2" d="M878.5,404.2c-0.3-0.4-0.6-0.9-0.9-1.3c-37.1-54.5-94.9-97.9-159-122.3c-1.2-0.5-2.3-0.9-3.5-1.3l-52.8,91.5
				H546.8l-0.2-0.4L489,470.1l57.8,100.1h115.6l57.8,100.1l-57.6,99.7l57.6,99.7h77c0.4-0.7,0.9-1.4,1.3-2
				C827,824,852.2,775,872.1,726.6c0.1-0.3,0.2-0.5,0.3-0.8c22.8-55.6,38.7-110.3,44.8-155.5c0.1-0.5,0.1-0.9,0.2-1.4
				c1.6-12.7,2.5-24.6,2.5-35.6C919.9,486.6,904.4,442.7,878.5,404.2z M836.4,670.3H720.8L663,570.2l57.8-100.1h115.6l57.8,100.1
				L836.4,670.3z"/>
			<path class="st2" d="M678.2,997.3c-15,9.5-30.1,16.4-45.3,20.4c-9.5,2.5-18.9,3.8-28.4,3.8c-9.4,0-18.9-1.3-28.4-3.8
				c-15-3.9-30-10.8-44.9-20.1l15.5-26.9l-0.4-0.8l0.2-0.4l0.2,0.4h115.6L678.2,997.3z"/>
			<polygon class="st2" points="546.8,970.7 531.3,997.6 530.6,997.1 545.2,971.9 546,970.5 546,970.5 546.4,969.9 			"/>
			<path class="st2" d="M678.5,997.1c-0.1,0.1-0.2,0.1-0.3,0.2l-15.8-27.4H546.8l-0.2-0.4l0.2-0.4h115.6l0.2,0.4l0.6,1v0
				L678.5,997.1z"/>
			<path class="st2" d="M546.8,970.7l-15.5,26.9l-0.7-0.4c-0.6-0.3-1.1-0.7-1.7-1.1c-41.3-26.6-81.3-72-116.4-125.5H489l56.2,97.3
				l1.2,2L546.8,970.7z"/>
			<line class="st2" x1="662.4" y1="370.8" x2="720.8" y2="470.1"/>
			<line class="st2" x1="836.4" y1="470.1" x2="878.5" y2="404.2"/>
			<line class="st2" x1="836.4" y1="670.3" x2="872.4" y2="725.8"/>
		</g>
		<line class="st2" x1="894.2" y1="570.2" x2="917.2" y2="570.2"/>
	</g>
	<path class="st2" d="M797.2,285.7c11.8-15.2,43.4-46.6,72.2-53.9c94.4-23.8,262.1,72,289.9,150.5c54.4,153.8,58.3,310.2,36.6,310.2
		c-29,0-37.9-112.7-119-123.1c-18.8-2.4-5.8-23.9-22.4-30.5c-51.9-20.7-29.2-82.9-88.5-139.3c-11.5-10.9-3.7-61.8-46.8-62
		c-18.2-0.1-35.1,6.9-44.7,11.2"/>
	<path class="st2" d="M412.5,285.7c-11.8-15.2-43.4-46.6-72.2-53.9c-94.4-23.8-262.1,72-289.9,150.5C-4,536.1-7.9,692.6,13.8,692.5
		c29,0,37.9-112.7,119-123.1c18.8-2.4,5.8-23.9,22.4-30.5c51.9-20.7,29.2-82.9,88.5-139.3c11.5-10.9,3.7-61.8,46.8-62
		c18.2-0.1,35.1,6.9,44.7,11.2"/>
	<path class="st2" d="M645.8,1047.9c0,27.8-21.1,72.7-37.1,72.7c-16,0-37.1-44.9-37.1-72.7v-0.3c0-0.4,0-0.8,0-1.1
		c11.6,3.3,23.2,5.2,34.8,5.4h0.6c0.6,0,1.2,0,1.7,0c12.3,0,24.7-1.9,37.1-5.4C645.8,1047,645.8,1047.4,645.8,1047.9z"/>
	<path class="st2" d="M400.3,904.8c-13.6,13.8-109,139.2-93.6,213.6c1.9,9.4,32.8,89.1,56.3,74.9c15.9-9.6,45.4-70.1,73.9-70.9
		c36-1-21.5-65.1-8.1-77.3c10-9.1,13.6,9.4,30.5,0c15.5-8.6,17.4-35.3,18.3-52.9"/>
	<path class="st2" d="M803.6,908.7c13.6,13.8,109,139.2,93.6,213.6c-1.9,9.4-32.8,89.1-56.3,74.9c-15.9-9.6-45.4-70.1-73.9-70.9
		c-36-1,21.5-65.1,8.1-77.3c-10-9.1-13.6,9.4-30.5,0c-15.5-8.6-17.4-35.3-18.3-52.9"/>
	<path class="st2" d="M698.5,153.7l-9.3,85.5c-27.9-7.2-56.4-11-84.6-11c-28.3,0-56.8,3.8-84.6,11l-9.3-85.5
		c-1.9-7.8,5.2-24.5,5.2-33.5c0-35.4,15.8-64.3,36-66.9c8-30.1,29.5-51.7,54.7-51.7c25.5,0,47.1,22,54.9,52.7
		c18.1,5.8,31.7,33.2,31.7,66C693.3,129.2,700.4,145.9,698.5,153.7z"/>
	<ellipse transform="matrix(0.5 -0.866 0.866 0.5 177.9898 530.8277)" class="st3" cx="548.7" cy="111.3" rx="19.6" ry="3.1"/>
	<ellipse transform="matrix(0.866 -0.5 0.5 0.866 32.8457 345.1218)" class="st3" cx="660.4" cy="111.3" rx="3.1" ry="19.6"/>
	<ellipse class="st4" cx="596.8" cy="33.5" rx="2.4" ry="8"/>
	<ellipse class="st4" cx="617.9" cy="33.5" rx="2.4" ry="8"/>
	<g>
		<path class="st5" d="M67.6,456.2c-4.4,1.7-8.9,3.3-13.3,5c-3.1,1.2-6.4-1.2-6.4-4.5c0-3,0.3-6.4,0.9-10.1c0.9-5,2.2-9.3,3.6-12.8
			c1-2.5,3.8-3.6,6.2-2.5c3.1,1.3,6.1,2.7,9.2,4c1.7,0.7,2.8,2.4,2.8,4.3v12.1C70.7,453.8,69.5,455.5,67.6,456.2z"/>
		<path class="st5" d="M130.6,343.5l-7.6,13.1c-0.6,1-1.8,1.4-2.8,1l-21-8.4c-0.7-1.3-1.8-4-1.5-7.5c0.3-3.3,1.6-5.6,3.1-7.8
			c4-6.2,8.8-7.8,9.6-7.8c0,0,1.2,0.1,1.2,0.1c0.2,0.1,0.5,0.2,0.7,0.4l17.7,14C131,341.2,131.2,342.5,130.6,343.5z"/>
		<path class="st5" d="M41.4,611.7c-1.9,2.2-4.2,4.6-7.1,7.1c-3.3,2.8-6.6,5-9.4,6.6c-1.5-3.3-3.6-9-3.7-16.5
			c-0.1-6.5,1.4-11.7,2.6-14.8c2.1,0.8,5.7,1.8,10.1,1.5c3.2-0.2,5.8-0.9,7.6-1.5c0.7,1.7,1.7,4.5,1.8,8
			C43.3,606.5,42.2,609.9,41.4,611.7z"/>
		<path class="st5" d="M194.6,290.7c-2.4,0.6-4.9,1.1-7.3,1.7c-0.6,0.1-4.3,0.3-7.1-2.4c-1.6-1.5-2.1-3.3-2.4-4.1
			c-0.1-1.2-0.2-5.3,2.5-9.3c2-2.9,4.6-4.2,5.8-4.8c2.2-0.3,4.4-0.5,6.6-0.8c3.1,0,5.6,2.5,5.6,5.6v6.8c-0.1,0.9-0.4,2.4-1.2,4
			C196.3,289,195.3,290.1,194.6,290.7z"/>
		<path class="st5" d="M176.5,308.6c-6.5-0.7-13.1-1.4-19.6-2.1c-4.8-1-8.1-4.8-8.3-9c-0.2-4.3,3.2-7.2,3.6-7.5
			c2.1-1.4,5.5-3.3,10.2-4.1c3.3-0.6,6.1-0.5,8.2-0.3C172.6,293.2,174.6,300.9,176.5,308.6z"/>
		<path class="st5" d="M213.8,306.3h-4.4c-1.9,0-3.5-1.3-3.9-3.1l-2.2-10.7c-0.5-2.5,1.4-4.8,3.9-4.8h8.8c2.5,0,4.4,2.3,3.9,4.8
			l-2.2,10.7C217.3,305,215.6,306.3,213.8,306.3z"/>
		<path class="st5" d="M144.7,324.3l-19.4,5.8c-2.1-1.1-3-2.4-3.4-3.2c-2.1-4.2,0.6-10.9,7.3-16.2c2-0.8,6-2.2,11.2-1.5
			c3.1,0.4,5.5,1.4,7.1,2.3c0,1.4-0.1,3-0.3,4.7C146.6,319.5,145.6,322.2,144.7,324.3z"/>
		<path class="st5" d="M247.7,272.7c-3.6,0.5-7.2,1-10.9,1.5c-0.9,0-2.2-0.2-3.6-0.6c-1.5-0.5-2.7-1.1-3.5-1.6
			c-0.7-0.7-3.5-3.3-4-7.7c-0.6-4.4,1.4-7.6,1.9-8.5c0.5-0.6,1.3-1.5,2.4-2.4c1.3-0.9,2.5-1.3,2.9-1.5c1.8-0.6,3.4-0.5,4.4-0.4
			c3.5,0.7,6.9,1.3,10.4,2c2.1,0,3.8,1.7,3.8,3.8v11.5C251.5,271,249.8,272.7,247.7,272.7z"/>
		<path class="st5" d="M42.4,557.6c-3.4,1.1-6.7,2.1-10.1,3.2c-1.3,0.1-4.1,0.2-5.8-1.6c-2.1-2.1-1.5-5.6-1-9.1
			c0.5-3.4,1.7-6,2.6-7.8c4.8-0.5,9.5-1,14.3-1.5V557.6z"/>
		<path class="st5" d="M120.8,386.5h-13.6c-1.3,0-2.4-0.9-2.7-2.2c-1.4-6.3-2.8-12.5-4.2-18.8c-0.5-2,1.4-3.8,3.4-3.2
			c5.9,1.7,11.8,3.4,17.7,5.1c1.2,0.3,2,1.4,2,2.6v13.7C123.6,385.3,122.4,386.5,120.8,386.5z"/>
		<path class="st5" d="M310.1,263.1H297c-0.9-0.3-1.9-0.7-2.9-1.2c-1.1-0.5-2.1-1-2.9-1.5c-0.4-0.7-0.9-1.8-1.3-3.1
			c-0.6-2.2-0.5-4-0.4-5c0.1-1.1,0.4-4.4,2.4-7.1c0.8-1.1,1.6-1.8,2.1-2.3c0.7-0.6,1.2-0.9,1.7-1c0,0,0.6-0.2,1.2-0.2
			c1.2,0,5.5,0.9,11.3,2.5c1.2,0.3,2.4,0.6,3.6,1c0.8,0.2,1.6,0.4,2.3,0.6V259C314.2,261.3,312.4,263.1,310.1,263.1z"/>
		<path class="st5" d="M154.7,351.4l-3.6,1.1c-2.2,0.7-4.6-0.7-5.2-2.9l-1.8-7.1c-1-3.8,3.4-6.7,6.5-4.3l2.9,2.2
			c0.4,0.3,0.7,0.7,1,1.1l2.5,3.8C158.5,347.5,157.3,350.6,154.7,351.4z"/>
		<path class="st5" d="M93.9,384.1c0,1.8-1.1,3.4-2.7,4c-2.6,0.9-6.1,1.8-10.2,1.7c-2.1-0.1-3.9-0.3-5.5-0.7
			c-1.6-0.4-2.9-1.7-3.2-3.3c0-0.1,0-0.2-0.1-0.3c-1-5.9,0.1-11.2,1.4-15.2c0.5-1.6,1.9-2.7,3.6-2.9c1.7-0.2,3.4-0.3,5.3-0.4
			c2.7-0.1,5.1,0,7.4,0.2c2.2,0.2,3.9,2,3.9,4.3V384.1z"/>
		<path class="st5" d="M356.4,276.8c0,1.8-1.1,3.4-2.7,4c-2.6,0.9-6.1,1.8-10.2,1.7c-2.1-0.1-3.9-0.3-5.5-0.7
			c-1.6-0.4-2.9-1.7-3.2-3.3c0-0.1,0-0.2-0.1-0.3c-1-5.9,0.1-11.2,1.4-15.2c0.5-1.6,1.9-2.7,3.6-2.9c1.7-0.2,3.4-0.3,5.3-0.4
			c2.7-0.1,5.1,0,7.4,0.2c2.2,0.2,3.9,2,3.9,4.3V276.8z"/>
		<path class="st5" d="M45.9,578c-7,3.2-14,6.5-21.1,9.7c-0.3-3.2-0.4-7.9,1-13.3c0.9-3.8,2.3-6.8,3.6-9.1c7,0.2,13.9,0.5,20.9,0.7
			C48.8,570,47.4,574,45.9,578z"/>
	</g>
	<g>
		<path class="st5" d="M1142.9,471.9c4.8,1.8,9.7,3.6,14.5,5.5c3.4,1.3,7-1.3,6.9-4.9c0-3.3-0.3-7-1-10.9
			c-0.9-5.4-2.4-10.1-3.9-13.9c-1.1-2.7-4.2-3.9-6.8-2.8c-3.3,1.5-6.7,2.9-10,4.4c-1.9,0.8-3.1,2.7-3.1,4.7v13.2
			C1139.6,469.2,1140.9,471.1,1142.9,471.9z"/>
		<path class="st5" d="M1074.3,349.2l8.3,14.3c0.6,1.1,1.9,1.5,3.1,1.1l22.8-9.1c0.7-1.4,1.9-4.4,1.7-8.1c-0.3-3.6-1.8-6-3.4-8.5
			c-4.3-6.8-9.5-8.5-10.5-8.5c0,0-1.3,0.1-1.3,0.1c-0.3,0.1-0.5,0.2-0.7,0.4l-19.3,15.2C1074,346.7,1073.7,348.1,1074.3,349.2z"/>
		<path class="st5" d="M1171.5,641.2c2.1,2.4,4.6,5,7.7,7.7c3.6,3.1,7.2,5.5,10.2,7.2c1.6-3.5,4-9.8,4.1-18
			c0.1-7.1-1.5-12.7-2.8-16.1c-2.3,0.8-6.2,1.9-11,1.7c-3.5-0.2-6.3-1-8.3-1.7c-0.8,1.9-1.8,4.9-2,8.7
			C1169.3,635.5,1170.6,639.2,1171.5,641.2z"/>
		<path class="st5" d="M1004.7,291.7c2.6,0.6,5.3,1.2,7.9,1.9c0.6,0.1,4.6,0.4,7.7-2.6c1.7-1.7,2.3-3.6,2.6-4.5
			c0.1-1.3,0.3-5.8-2.7-10.1c-2.2-3.1-5-4.6-6.4-5.2c-2.4-0.3-4.8-0.6-7.2-0.9c-3.4,0-6.1,2.7-6.1,6.1v7.4c0.1,1,0.4,2.6,1.3,4.3
			C1002.8,290,1003.9,291.1,1004.7,291.7z"/>
		<path class="st5" d="M1024.4,311.2c7.1-0.8,14.2-1.5,21.4-2.3c5.2-1.1,8.8-5.2,9-9.8c0.2-4.7-3.5-7.8-4-8.2
			c-2.2-1.5-6-3.5-11.1-4.5c-3.6-0.7-6.7-0.6-8.9-0.3C1028.6,294.5,1026.5,302.9,1024.4,311.2z"/>
		<path class="st5" d="M983.8,308.7h4.7c2,0,3.8-1.4,4.2-3.4l2.4-11.6c0.6-2.7-1.5-5.2-4.2-5.2h-9.6c-2.7,0-4.8,2.5-4.2,5.2
			l2.4,11.6C980,307.3,981.8,308.7,983.8,308.7z"/>
		<path class="st5" d="M1059.1,328.3l21.1,6.4c2.3-1.2,3.3-2.6,3.7-3.5c2.3-4.5-0.7-11.9-8-17.6c-2.1-0.9-6.6-2.4-12.1-1.7
			c-3.4,0.4-6,1.6-7.8,2.5c0,1.5,0.1,3.2,0.4,5.1C1056.9,323.1,1058,326.1,1059.1,328.3z"/>
		<path class="st5" d="M946.9,272.2c3.9,0.6,7.9,1.1,11.8,1.7c1,0,2.4-0.2,4-0.7c1.7-0.5,2.9-1.2,3.8-1.8c0.8-0.7,3.8-3.6,4.4-8.4
			c0.6-4.8-1.5-8.3-2.1-9.2c-0.5-0.7-1.4-1.7-2.6-2.6c-1.4-1-2.7-1.5-3.1-1.6c-2-0.6-3.7-0.6-4.8-0.5c-3.8,0.7-7.5,1.4-11.3,2.2
			c-2.3,0-4.2,1.9-4.2,4.2V268C942.7,270.3,944.6,272.2,946.9,272.2z"/>
		<path class="st5" d="M1170.4,582.3c3.6,1.1,7.3,2.3,10.9,3.4c1.4,0.1,4.4,0.2,6.4-1.8c2.3-2.3,1.7-6,1.1-9.9
			c-0.6-3.7-1.8-6.6-2.8-8.5c-5.2-0.5-10.4-1.1-15.5-1.6V582.3z"/>
		<path class="st5" d="M1085,396h14.8c1.4,0,2.6-1,2.9-2.4c1.5-6.8,3-13.6,4.5-20.4c0.5-2.2-1.6-4.2-3.8-3.5
			c-6.4,1.8-12.9,3.7-19.3,5.5c-1.3,0.4-2.2,1.5-2.2,2.9V393C1082,394.7,1083.3,396,1085,396z"/>
		<path class="st5" d="M879,261.7h14.3c1-0.4,2.1-0.8,3.2-1.3c1.2-0.5,2.2-1.1,3.2-1.7c0.4-0.8,1-1.9,1.4-3.4
			c0.7-2.4,0.5-4.4,0.4-5.4c-0.1-1.2-0.5-4.8-2.6-7.7c-0.9-1.1-1.7-1.9-2.3-2.5c-0.8-0.6-1.3-0.9-1.8-1.1c0,0-0.6-0.2-1.3-0.2
			c-1.3,0-6,1-12.3,2.7c-1.3,0.3-2.6,0.7-3.9,1.1c-0.9,0.2-1.7,0.5-2.6,0.7v14.3C874.5,259.7,876.5,261.7,879,261.7z"/>
		<path class="st5" d="M1048.1,357.8l3.9,1.2c2.4,0.7,5-0.7,5.7-3.2l2-7.7c1.1-4.1-3.7-7.3-7.1-4.7l-3.2,2.4
			c-0.4,0.3-0.8,0.7-1.1,1.2l-2.7,4.2C1044,353.5,1045.3,356.9,1048.1,357.8z"/>
		<path class="st5" d="M1114.3,393.4c0,1.9,1.2,3.7,3,4.4c2.8,1,6.6,2,11.1,1.8c2.2-0.1,4.3-0.4,6-0.8c1.8-0.4,3.2-1.8,3.5-3.6
			c0-0.1,0-0.2,0.1-0.4c1.1-6.4-0.1-12.2-1.6-16.6c-0.6-1.7-2.1-3-3.9-3.2c-1.8-0.2-3.7-0.3-5.8-0.4c-2.9-0.1-5.6,0-8.1,0.3
			c-2.4,0.2-4.3,2.2-4.3,4.7V393.4z"/>
		<path class="st5" d="M828.6,276.6c0,1.9,1.2,3.7,3,4.4c2.8,1,6.6,2,11.1,1.8c2.2-0.1,4.3-0.4,6-0.8c1.8-0.4,3.2-1.8,3.5-3.6
			c0-0.1,0-0.2,0.1-0.4c1.1-6.4-0.1-12.2-1.6-16.6c-0.6-1.7-2.1-3-3.9-3.2c-1.8-0.2-3.7-0.3-5.8-0.4c-2.9-0.1-5.6,0-8.1,0.3
			c-2.4,0.2-4.3,2.2-4.3,4.7V276.6z"/>
		<path class="st5" d="M1166.5,604.4c7.6,3.5,15.3,7.1,22.9,10.6c0.3-3.4,0.4-8.6-1.1-14.5c-1-4.1-2.5-7.4-3.9-9.9
			c-7.6,0.3-15.1,0.5-22.7,0.8C1163.4,595.7,1164.9,600.1,1166.5,604.4z"/>
	</g>
	<g>
		<path class="st5" d="M341.3,1114.6c-5,1.9-10,3.8-15,5.7c-3.5,1.3-7.2-1.3-7.2-5.1c0-3.4,0.3-7.2,1-11.3c1-5.6,2.5-10.4,4-14.4
			c1.1-2.8,4.3-4.1,7-2.9c3.5,1.5,6.9,3,10.4,4.5c1.9,0.8,3.2,2.8,3.2,4.9v13.7C344.7,1111.8,343.4,1113.8,341.3,1114.6z"/>
		<path class="st5" d="M350.2,1062.5h-4.9c-2.1,0-3.9-1.5-4.4-3.6l-2.5-12c-0.6-2.8,1.5-5.4,4.4-5.4h10c2.8,0,5,2.6,4.4,5.4l-2.5,12
			C354.1,1061,352.3,1062.5,350.2,1062.5z"/>
		<path class="st5" d="M373.3,1017.9l-21.9,6.6c-2.4-1.2-3.4-2.7-3.9-3.6c-2.3-4.7,0.7-12.3,8.3-18.2c2.2-0.9,6.8-2.5,12.6-1.7
			c3.5,0.5,6.2,1.6,8.1,2.6c0,1.6-0.1,3.4-0.4,5.3C375.5,1012.5,374.3,1015.6,373.3,1017.9z"/>
		<path class="st5" d="M369.6,1093.4l-4,1.2c-2.5,0.8-5.2-0.7-5.9-3.3l-2.1-8c-1.1-4.3,3.8-7.5,7.3-4.9l3.3,2.5
			c0.4,0.3,0.8,0.7,1.1,1.2l2.8,4.3C373.9,1089,372.6,1092.5,369.6,1093.4z"/>
	</g>
	<g>
		<path class="st5" d="M859.4,1098.3c5.3,2,10.5,4,15.8,5.9c3.7,1.4,7.6-1.4,7.5-5.4c0-3.6-0.3-7.6-1.1-11.9c-1-5.9-2.6-11-4.2-15.2
			c-1.2-2.9-4.5-4.3-7.4-3c-3.6,1.6-7.3,3.2-10.9,4.8c-2,0.9-3.4,2.9-3.4,5.1v14.4C855.8,1095.4,857.3,1097.5,859.4,1098.3z"/>
		<path class="st5" d="M850.1,1043.5h5.2c2.2,0,4.1-1.6,4.6-3.7l2.6-12.6c0.6-2.9-1.6-5.7-4.6-5.7h-10.5c-3,0-5.2,2.7-4.6,5.7
			l2.6,12.6C845.9,1041.9,847.9,1043.5,850.1,1043.5z"/>
		<path class="st5" d="M825.8,996.6l23,6.9c2.5-1.3,3.6-2.8,4.1-3.8c2.5-4.9-0.8-13-8.7-19.2c-2.3-1-7.2-2.6-13.2-1.8
			c-3.7,0.5-6.6,1.7-8.5,2.7c0,1.7,0.1,3.5,0.4,5.6C823.5,990.9,824.7,994.2,825.8,996.6z"/>
		<path class="st5" d="M829.7,1076l4.2,1.3c2.7,0.8,5.5-0.8,6.2-3.5l2.2-8.4c1.2-4.5-4-7.9-7.7-5.1l-3.5,2.6
			c-0.5,0.3-0.9,0.8-1.2,1.3l-2.9,4.5C825.2,1071.4,826.5,1075,829.7,1076z"/>
	</g>
</g>
</svg>
